Comic Neue Angular Regular Oblique.ufo
<glyph name="exclam" format="1">
  <advance width="185"/>
  <unicode hex="0021"/>
  <outline>
    <contour>
      <point x="93" y="159" type="line"/>
      <point x="207" y="692" type="line"/>
      <point x="150" y="682" type="line"/>
      <point x="37" y="148" type="line"/>
    </contour>
    <contour>
      <point x="81" y="92" type="line"/>
      <point x="23" y="82" type="line"/>
      <point x="-1" y="0" type="line"/>
      <point x="57" y="10" type="line"/>
    </contour>
  </outline>
</glyph>
<glyph name="ampersand" format="1">
  <advance width="662"/>
  <unicode hex="0026"/>
  <outline>
    <contour>
      <point x="470" y="159" type="line"/>
      <point x="496" y="193"/>
      <point x="519" y="233"/>
      <point x="543" y="283" type="curve"/>
      <point x="509" y="333" type="line"/>
      <point x="488" y="281"/>
      <point x="465" y="238"/>
      <point x="442" y="204" type="curve"/>
      <point x="334" y="376" type="line"/>
      <point x="395" y="411"/>
      <point x="506" y="456"/>
      <point x="506" y="574" type="curve" smooth="yes"/>
      <point x="506" y="636"/>
      <point x="454" y="690"/>
      <point x="386" y="690" type="curve" smooth="yes"/>
      <point x="298" y="690"/>
      <point x="206" y="605"/>
      <point x="206" y="519" type="curve" smooth="yes"/>
      <point x="206" y="467"/>
      <point x="232" y="419"/>
      <point x="251" y="390" type="curve"/>
      <point x="158" y="345"/>
      <point x="40" y="283"/>
      <point x="40" y="145" type="curve" smooth="yes"/>
      <point x="40" y="52"/>
      <point x="122" y="-4"/>
      <point x="208" y="-4" type="curve" smooth="yes"/>
      <point x="266" y="-4"/>
      <point x="364" y="33"/>
      <point x="430" y="110" type="curve"/>
      <point x="500" y="0" type="line"/>
      <point x="548" y="34" type="line"/>
    </contour>
    <contour>
      <point x="416" y="637"/>
      <point x="452" y="601"/>
      <point x="452" y="563" type="curve" smooth="yes"/>
      <point x="452" y="521"/>
      <point x="436" y="477"/>
      <point x="306" y="417" type="curve"/>
      <point x="287" y="441"/>
      <point x="261" y="486"/>
      <point x="261" y="528" type="curve" smooth="yes"/>
      <point x="261" y="586"/>
      <point x="321" y="637"/>
      <point x="375" y="637" type="curve" smooth="yes"/>
    </contour>
    <contour>
      <point x="165" y="50"/>
      <point x="95" y="83"/>
      <point x="95" y="155" type="curve" smooth="yes"/>
      <point x="95" y="262"/>
      <point x="187" y="305"/>
      <point x="281" y="350" type="curve"/>
      <point x="403" y="153" type="line"/>
      <point x="345" y="82"/>
      <point x="266" y="50"/>
      <point x="219" y="50" type="curve" smooth="yes"/>
    </contour>
  </outline>
</glyph>
<glyph name="quotesingle" format="1">
  <advance width="192"/>
  <unicode hex="0027"/>
  <outline>
    <contour>
      <point x="176" y="510" type="line"/>
      <point x="214" y="690" type="line"/>
      <point x="158" y="680" type="line"/>
      <point x="120" y="500" type="line"/>
    </contour>
  </outline>
</glyph>
<glyph name="plus" format="1">
  <advance width="441"/>
  <unicode hex="002B"/>
  <outline>
    <contour>
      <point x="391" y="278" type="line"/>
      <point x="251" y="278" type="line"/>
      <point x="279" y="413" type="line"/>
      <point x="223" y="402" type="line"/>
      <point x="197" y="278" type="line"/>
      <point x="68" y="278" type="line"/>
      <point x="46" y="224" type="line"/>
      <point x="185" y="224" type="line"/>
      <point x="156" y="85" type="line"/>
      <point x="212" y="95" type="line"/>
      <point x="239" y="224" type="line"/>
      <point x="368" y="224" type="line"/>
    </contour>
  </outline>
</glyph>
<glyph name="slash" format="1">
  <advance width="492"/>
  <unicode hex="002F"/>
  <outline>
    <contour>
      <point x="499" y="692" type="line"/>
      <point x="-28" y="0" type="line"/>
      <point x="33" y="0" type="line"/>
      <point x="560" y="692" type="line"/>
    </contour>
  </outline>
</glyph>
<glyph name="one" format="1">
  <advance width="414"/>
  <unicode hex="0031"/>
  <outline>
    <contour>
      <point x="206" y="54" type="line"/>
      <point x="349" y="681" type="line"/>
      <point x="112" y="502" type="line"/>
      <point x="140" y="462" type="line"/>
      <point x="268" y="559" type="line"/>
      <point x="152" y="54" type="line"/>
      <point x="41" y="54" type="line"/>
      <point x="20" y="0" type="line"/>
      <point x="283" y="0" type="line"/>
      <point x="304" y="54" type="line"/>
    </contour>
  </outline>
</glyph>
<glyph name="three" format="1">
  <advance width="549"/>
  <unicode hex="0033"/>
  <outline>
    <contour>
      <point x="449" y="413"/>
      <point x="525" y="471"/>
      <point x="525" y="560" type="curve" smooth="yes"/>
      <point x="525" y="631"/>
      <point x="457" y="683"/>
      <point x="358" y="683" type="curve" smooth="yes"/>
      <point x="267" y="683"/>
      <point x="190" y="629"/>
      <point x="165" y="609" type="curve"/>
      <point x="193" y="569" type="line"/>
      <point x="208" y="580"/>
      <point x="272" y="629"/>
      <point x="346" y="629" type="curve" smooth="yes"/>
      <point x="424" y="629"/>
      <point x="466" y="589"/>
      <point x="466" y="548" type="curve" smooth="yes"/>
      <point x="466" y="474"/>
      <point x="373" y="413"/>
      <point x="251" y="406" type="curve"/>
      <point x="242" y="352" type="line"/>
      <point x="336" y="352"/>
      <point x="416" y="324"/>
      <point x="416" y="238" type="curve" smooth="yes"/>
      <point x="416" y="137"/>
      <point x="326" y="50"/>
      <point x="229" y="50" type="curve" smooth="yes"/>
      <point x="156" y="50"/>
      <point x="100" y="88"/>
      <point x="96" y="154" type="curve"/>
      <point x="40" y="132" type="line"/>
      <point x="50" y="39"/>
      <point x="132" y="-4"/>
      <point x="218" y="-4" type="curve" smooth="yes"/>
      <point x="299" y="-4"/>
      <point x="473" y="64"/>
      <point x="473" y="250" type="curve" smooth="yes"/>
      <point x="473" y="316"/>
      <point x="439" y="360"/>
      <point x="382" y="385" type="curve"/>
    </contour>
  </outline>
</glyph>
<glyph name="five" format="1">
  <advance width="562"/>
  <unicode hex="0035"/>
  <outline>
    <contour>
      <point x="356" y="0"/>
      <point x="503" y="141"/>
      <point x="503" y="309" type="curve" smooth="yes"/>
      <point x="503" y="402"/>
      <point x="450" y="484"/>
      <point x="342" y="484" type="curve" smooth="yes"/>
      <point x="280" y="484"/>
      <point x="231" y="462"/>
      <point x="193" y="437" type="curve"/>
      <point x="250" y="619" type="line"/>
      <point x="542" y="619" type="line"/>
      <point x="563" y="672" type="line"/>
      <point x="214" y="672" type="line"/>
      <point x="118" y="364" type="line"/>
      <point x="163" y="348" type="line"/>
      <point x="201" y="394"/>
      <point x="268" y="431"/>
      <point x="331" y="431" type="curve" smooth="yes"/>
      <point x="393" y="431"/>
      <point x="451" y="387"/>
      <point x="451" y="304" type="curve" smooth="yes"/>
      <point x="451" y="182"/>
      <point x="344" y="53"/>
      <point x="219" y="53" type="curve" smooth="yes"/>
      <point x="167" y="53"/>
      <point x="108" y="85"/>
      <point x="92" y="152" type="curve"/>
      <point x="39" y="131" type="line"/>
      <point x="68" y="24"/>
      <point x="155" y="0"/>
      <point x="208" y="0" type="curve" smooth="yes"/>
    </contour>
  </outline>
</glyph>
<glyph name="eight" format="1">
  <advance width="547"/>
  <unicode hex="0038"/>
  <outline>
    <contour>
      <point x="346" y="-3"/>
      <point x="467" y="99"/>
      <point x="467" y="228" type="curve" smooth="yes"/>
      <point x="467" y="290"/>
      <point x="435" y="342"/>
      <point x="376" y="375" type="curve"/>
      <point x="440" y="404"/>
      <point x="521" y="458"/>
      <point x="521" y="561" type="curve" smooth="yes"/>
      <point x="521" y="636"/>
      <point x="463" y="686"/>
      <point x="373" y="686" type="curve" smooth="yes"/>
      <point x="267" y="686"/>
      <point x="148" y="608"/>
      <point x="148" y="478" type="curve" smooth="yes"/>
      <point x="148" y="422"/>
      <point x="185" y="389"/>
      <point x="228" y="368" type="curve"/>
      <point x="154" y="335"/>
      <point x="45" y="268"/>
      <point x="45" y="140" type="curve" smooth="yes"/>
      <point x="45" y="55"/>
      <point x="111" y="-3"/>
      <point x="216" y="-3" type="curve" smooth="yes"/>
    </contour>
    <contour>
      <point x="358" y="324"/>
      <point x="411" y="282"/>
      <point x="411" y="215" type="curve" smooth="yes"/>
      <point x="411" y="103"/>
      <point x="302" y="52"/>
      <point x="228" y="52" type="curve" smooth="yes"/>
      <point x="153" y="52"/>
      <point x="99" y="92"/>
      <point x="99" y="151" type="curve" smooth="yes"/>
      <point x="99" y="264"/>
      <point x="224" y="315"/>
      <point x="299" y="343" type="curve"/>
    </contour>
    <contour>
      <point x="236" y="422"/>
      <point x="204" y="450"/>
      <point x="204" y="492" type="curve" smooth="yes"/>
      <point x="204" y="565"/>
      <point x="275" y="630"/>
      <point x="361" y="630" type="curve" smooth="yes"/>
      <point x="421" y="630"/>
      <point x="466" y="601"/>
      <point x="466" y="551" type="curve" smooth="yes"/>
      <point x="466" y="470"/>
      <point x="394" y="437"/>
      <point x="308" y="401" type="curve"/>
    </contour>
  </outline>
</glyph>
<glyph name="nine" format="1">
  <advance width="546"/>
  <unicode hex="0039"/>
  <outline>
    <contour>
      <point x="133" y="-3" type="line"/>
      <point x="345" y="80"/>
      <point x="525" y="288"/>
      <point x="525" y="512" type="curve" smooth="yes"/>
      <point x="525" y="613"/>
      <point x="475" y="686"/>
      <point x="354" y="686" type="curve" smooth="yes"/>
      <point x="238" y="686"/>
      <point x="92" y="563"/>
      <point x="92" y="384" type="curve" smooth="yes"/>
      <point x="92" y="244"/>
      <point x="229" y="239"/>
      <point x="246" y="239" type="curve" smooth="yes"/>
      <point x="310" y="239"/>
      <point x="365" y="259"/>
      <point x="405" y="281" type="curve"/>
      <point x="344" y="178"/>
      <point x="239" y="89"/>
      <point x="126" y="47" type="curve"/>
    </contour>
    <contour>
      <point x="422" y="344"/>
      <point x="351" y="292"/>
      <point x="258" y="292" type="curve" smooth="yes"/>
      <point x="230" y="292"/>
      <point x="146" y="300"/>
      <point x="146" y="396" type="curve" smooth="yes"/>
      <point x="146" y="502"/>
      <point x="227" y="633"/>
      <point x="340" y="633" type="curve" smooth="yes"/>
      <point x="404" y="633"/>
      <point x="473" y="609"/>
      <point x="473" y="505" type="curve" smooth="yes"/>
      <point x="473" y="467"/>
      <point x="461" y="409"/>
      <point x="445" y="363" type="curve"/>
    </contour>
  </outline>
</glyph>
<glyph name="greater" format="1">
  <advance width="568"/>
  <unicode hex="003E"/>
  <outline>
    <contour>
      <point x="49" y="-2" type="line"/>
      <point x="496" y="251" type="line"/>
      <point x="175" y="504" type="line"/>
      <point x="135" y="460" type="line"/>
      <point x="398" y="252" type="line"/>
      <point x="30" y="43" type="line"/>
    </contour>
  </outline>
</glyph>
<glyph name="at" format="1">
  <advance width="828"/>
  <unicode hex="0040"/>
  <outline>
    <contour>
      <point x="246" y="-42"/>
      <point x="113" y="38"/>
      <point x="113" y="190" type="curve" smooth="yes"/>
      <point x="113" y="394"/>
      <point x="300" y="563"/>
      <point x="495" y="563" type="curve" smooth="yes"/>
      <point x="651" y="563"/>
      <point x="722" y="462"/>
      <point x="722" y="347" type="curve" smooth="yes"/>
      <point x="722" y="246"/>
      <point x="673" y="148"/>
      <point x="582" y="148" type="curve" smooth="yes"/>
      <point x="530" y="148"/>
      <point x="502" y="174"/>
      <point x="502" y="210" type="curve" smooth="yes"/>
      <point x="502" y="226"/>
      <point x="507" y="247"/>
      <point x="520" y="270" type="curve"/>
      <point x="474" y="288" type="line"/>
      <point x="453" y="255"/>
      <point x="383" y="161"/>
      <point x="328" y="161" type="curve" smooth="yes"/>
      <point x="300" y="161"/>
      <point x="279" y="178"/>
      <point x="279" y="213" type="curve" smooth="yes"/>
      <point x="279" y="289"/>
      <point x="355" y="375"/>
      <point x="428" y="375" type="curve" smooth="yes"/>
      <point x="451" y="375"/>
      <point x="472" y="366"/>
      <point x="492" y="350" type="curve"/>
      <point x="533" y="393" type="line"/>
      <point x="506" y="417"/>
      <point x="473" y="428"/>
      <point x="439" y="428" type="curve" smooth="yes"/>
      <point x="330" y="428"/>
      <point x="224" y="310"/>
      <point x="224" y="198" type="curve" smooth="yes"/>
      <point x="224" y="140"/>
      <point x="259" y="108"/>
      <point x="316" y="108" type="curve" smooth="yes"/>
      <point x="365" y="108"/>
      <point x="413" y="142"/>
      <point x="449" y="179" type="curve"/>
      <point x="455" y="130"/>
      <point x="511" y="94"/>
      <point x="569" y="94" type="curve" smooth="yes"/>
      <point x="696" y="94"/>
      <point x="778" y="223"/>
      <point x="778" y="358" type="curve" smooth="yes"/>
      <point x="778" y="509"/>
      <point x="669" y="617"/>
      <point x="507" y="617" type="curve" smooth="yes"/>
      <point x="285" y="617"/>
      <point x="59" y="425"/>
      <point x="59" y="183" type="curve" smooth="yes"/>
      <point x="59" y="25"/>
      <point x="177" y="-95"/>
      <point x="346" y="-95" type="curve" smooth="yes"/>
      <point x="494" y="-95"/>
      <point x="605" y="-10"/>
      <point x="617" y="-1" type="curve"/>
      <point x="570" y="24" type="line"/>
      <point x="535" y="2"/>
      <point x="456" y="-42"/>
      <point x="358" y="-42" type="curve" smooth="yes"/>
    </contour>
  </outline>
</glyph>
<glyph name="G" format="1">
  <advance width="744"/>
  <unicode hex="0047"/>
  <outline>
    <contour>
      <point x="653" y="229"/>
      <point x="667" y="224"/>
      <point x="675" y="221" type="curve"/>
      <point x="687" y="277" type="line"/>
      <point x="656" y="285"/>
      <point x="617" y="289"/>
      <point x="576" y="289" type="curve" smooth="yes"/>
      <point x="518" y="289"/>
      <point x="456" y="281"/>
      <point x="407" y="266" type="curve"/>
      <point x="395" y="208" type="line"/>
      <point x="435" y="224"/>
      <point x="502" y="236"/>
      <point x="562" y="236" type="curve" smooth="yes"/>
      <point x="567" y="236"/>
      <point x="579" y="236"/>
      <point x="588" y="235" type="curve"/>
      <point x="534" y="120"/>
      <point x="438" y="52"/>
      <point x="311" y="52" type="curve" smooth="yes"/>
      <point x="181" y="52"/>
      <point x="123" y="151"/>
      <point x="123" y="265" type="curve" smooth="yes"/>
      <point x="123" y="440"/>
      <point x="274" y="629"/>
      <point x="452" y="629" type="curve" smooth="yes"/>
      <point x="575" y="629"/>
      <point x="637" y="565"/>
      <point x="641" y="466" type="curve"/>
      <point x="696" y="477" type="line"/>
      <point x="692" y="598"/>
      <point x="614" y="682"/>
      <point x="463" y="682" type="curve" smooth="yes"/>
      <point x="241" y="682"/>
      <point x="67" y="445"/>
      <point x="67" y="252" type="curve" smooth="yes"/>
      <point x="67" y="104"/>
      <point x="154" y="-2"/>
      <point x="299" y="-2" type="curve" smooth="yes"/>
      <point x="531" y="-2"/>
      <point x="620" y="182"/>
      <point x="640" y="230" type="curve"/>
    </contour>
  </outline>
</glyph>
<glyph name="I" format="1">
  <advance width="437"/>
  <unicode hex="0049"/>
  <outline>
    <contour>
      <point x="444" y="625" type="line"/>
      <point x="466" y="681" type="line"/>
      <point x="159" y="681" type="line"/>
      <point x="137" y="625" type="line"/>
      <point x="270" y="625" type="line"/>
      <point x="149" y="56" type="line"/>
      <point x="26" y="56" type="line"/>
      <point x="5" y="0" type="line"/>
      <point x="312" y="0" type="line"/>
      <point x="333" y="56" type="line"/>
      <point x="205" y="56" type="line"/>
      <point x="326" y="625" type="line"/>
    </contour>
  </outline>
</glyph>
<glyph name="Q" format="1">
  <advance width="721"/>
  <unicode hex="0051"/>
  <outline>
    <contour>
      <point x="512" y="92" type="line"/>
      <point x="614" y="174"/>
      <point x="692" y="306"/>
      <point x="692" y="440" type="curve" smooth="yes"/>
      <point x="692" y="575"/>
      <point x="607" y="679"/>
      <point x="469" y="679" type="curve" smooth="yes"/>
      <point x="273" y="679"/>
      <point x="54" y="466"/>
      <point x="54" y="237" type="curve" smooth="yes"/>
      <point x="54" y="101"/>
      <point x="139" y="-1"/>
      <point x="277" y="-1" type="curve" smooth="yes"/>
      <point x="339" y="-1"/>
      <point x="404" y="20"/>
      <point x="463" y="57" type="curve"/>
      <point x="584" y="-35" type="line"/>
      <point x="618" y="12" type="line"/>
    </contour>
    <contour>
      <point x="383" y="193" type="line"/>
      <point x="326" y="163" type="line"/>
      <point x="424" y="92" type="line"/>
      <point x="381" y="67"/>
      <point x="334" y="52"/>
      <point x="289" y="52" type="curve" smooth="yes"/>
      <point x="182" y="52"/>
      <point x="116" y="133"/>
      <point x="116" y="245" type="curve" smooth="yes"/>
      <point x="116" y="445"/>
      <point x="296" y="625"/>
      <point x="449" y="625" type="curve" smooth="yes"/>
      <point x="563" y="625"/>
      <point x="629" y="531"/>
      <point x="629" y="420" type="curve" smooth="yes"/>
      <point x="629" y="307"/>
      <point x="558" y="194"/>
      <point x="474" y="126" type="curve"/>
    </contour>
  </outline>
</glyph>
<glyph name="R" format="1">
  <advance width="594"/>
  <unicode hex="0052"/>
  <outline>
    <contour>
      <point x="199" y="630" type="line"/>
      <point x="241" y="630" type="line" smooth="yes"/>
      <point x="450" y="630"/>
      <point x="514" y="574"/>
      <point x="514" y="501" type="curve" smooth="yes"/>
      <point x="514" y="389"/>
      <point x="355" y="303"/>
      <point x="128" y="295" type="curve"/>
    </contour>
    <contour>
      <point x="115" y="237" type="line"/>
      <point x="150" y="244"/>
      <point x="197" y="249"/>
      <point x="221" y="249" type="curve" smooth="yes"/>
      <point x="242" y="249"/>
      <point x="269" y="246"/>
      <point x="283" y="238" type="curve" smooth="yes"/>
      <point x="326" y="213"/>
      <point x="400" y="151"/>
      <point x="446" y="0" type="curve"/>
      <point x="496" y="37" type="line"/>
      <point x="452" y="172"/>
      <point x="388" y="240"/>
      <point x="338" y="275" type="curve"/>
      <point x="486" y="318"/>
      <point x="573" y="419"/>
      <point x="573" y="519" type="curve" smooth="yes"/>
      <point x="573" y="663"/>
      <point x="395" y="687"/>
      <point x="265" y="687" type="curve" smooth="yes"/>
      <point x="231" y="687"/>
      <point x="177" y="683"/>
      <point x="154" y="681" type="curve"/>
      <point x="10" y="0" type="line"/>
      <point x="67" y="10" type="line"/>
    </contour>
  </outline>
</glyph>
<glyph name="T" format="1">
  <advance width="522"/>
  <unicode hex="0054"/>
  <outline>
    <contour>
      <point x="170" y="0" type="line"/>
      <point x="229" y="10" type="line"/>
      <point x="359" y="625" type="line"/>
      <point x="589" y="625" type="line"/>
      <point x="601" y="681" type="line"/>
      <point x="99" y="681" type="line"/>
      <point x="87" y="625" type="line"/>
      <point x="302" y="625" type="line"/>
    </contour>
  </outline>
</glyph>
<glyph name="W" format="1">
  <advance width="878"/>
  <unicode hex="0057"/>
  <outline>
    <contour>
      <point x="957" y="680" type="line"/>
      <point x="894" y="669" type="line"/>
      <point x="575" y="92" type="line"/>
      <point x="553" y="681" type="line"/>
      <point x="492" y="670" type="line"/>
      <point x="201" y="100" type="line"/>
      <point x="153" y="681" type="line"/>
      <point x="97" y="671" type="line"/>
      <point x="152" y="0" type="line"/>
      <point x="212" y="11" type="line"/>
      <point x="503" y="579" type="line"/>
      <point x="525" y="0" type="line"/>
      <point x="587" y="11" type="line"/>
    </contour>
  </outline>
</glyph>
<glyph name="backslash" format="1">
  <advance width="492"/>
  <unicode hex="005C"/>
  <outline>
    <contour>
      <point x="179" y="693" type="line"/>
      <point x="118" y="693" type="line"/>
      <point x="351" y="0" type="line"/>
      <point x="413" y="0" type="line"/>
    </contour>
  </outline>
</glyph>
<glyph name="asciicircum" format="1">
  <advance width="500"/>
  <unicode hex="005E"/>
  <outline>
    <contour>
      <point x="240" y="718" type="line"/>
      <point x="373" y="806" type="line"/>
      <point x="450" y="719" type="line"/>
      <point x="495" y="759" type="line"/>
      <point x="392" y="881" type="line"/>
      <point x="216" y="760" type="line"/>
    </contour>
  </outline>
</glyph>
<glyph name="grave" format="1">
  <advance width="500"/>
  <unicode hex="0060"/>
  <outline>
    <contour>
      <point x="448" y="754" type="line"/>
      <point x="353" y="900" type="line"/>
      <point x="286" y="866" type="line"/>
      <point x="396" y="726" type="line"/>
    </contour>
  </outline>
</glyph>
<glyph name="a" format="1">
  <advance width="504"/>
  <unicode hex="0061"/>
  <outline>
    <contour>
      <point x="484" y="472" type="line"/>
      <point x="444" y="495"/>
      <point x="396" y="513"/>
      <point x="341" y="513" type="curve" smooth="yes"/>
      <point x="172" y="513"/>
      <point x="35" y="310"/>
      <point x="35" y="164" type="curve" smooth="yes"/>
      <point x="35" y="69"/>
      <point x="92" y="7"/>
      <point x="184" y="7" type="curve" smooth="yes"/>
      <point x="240" y="7"/>
      <point x="300" y="33"/>
      <point x="339" y="54" type="curve"/>
      <point x="328" y="0" type="line"/>
      <point x="386" y="11" type="line"/>
    </contour>
    <contour>
      <point x="119" y="63"/>
      <point x="94" y="119"/>
      <point x="94" y="178" type="curve" smooth="yes"/>
      <point x="94" y="235"/>
      <point x="158" y="458"/>
      <point x="334" y="458" type="curve" smooth="yes"/>
      <point x="368" y="458"/>
      <point x="406" y="444"/>
      <point x="423" y="436" type="curve"/>
      <point x="351" y="120" type="line"/>
      <point x="325" y="103"/>
      <point x="254" y="62"/>
      <point x="194" y="62" type="curve" smooth="yes"/>
    </contour>
  </outline>
</glyph>
<glyph name="f" format="1">
  <advance width="332"/>
  <unicode hex="0066"/>
  <outline>
    <contour>
      <point x="424" y="693" type="line"/>
      <point x="412" y="694"/>
      <point x="403" y="694"/>
      <point x="393" y="694" type="curve" smooth="yes"/>
      <point x="259" y="694"/>
      <point x="186" y="642"/>
      <point x="156" y="502" type="curve"/>
      <point x="80" y="502" type="line"/>
      <point x="60" y="451" type="line"/>
      <point x="145" y="451" type="line"/>
      <point x="50" y="0" type="line"/>
      <point x="108" y="10" type="line"/>
      <point x="201" y="451" type="line"/>
      <point x="325" y="451" type="line"/>
      <point x="348" y="502" type="line"/>
      <point x="217" y="502" type="line"/>
      <point x="238" y="600"/>
      <point x="269" y="640"/>
      <point x="378" y="640" type="curve" smooth="yes"/>
      <point x="390" y="640" type="line"/>
    </contour>
  </outline>
</glyph>
<glyph name="i" format="1">
  <advance width="193"/>
  <unicode hex="0069"/>
  <outline>
    <contour>
      <point x="114" y="491" type="line"/>
      <point x="10" y="0" type="line"/>
      <point x="71" y="10" type="line"/>
      <point x="175" y="500" type="line"/>
    </contour>
    <contour>
      <point x="219" y="689" type="line"/>
      <point x="161" y="679" type="line"/>
      <point x="136" y="597" type="line"/>
      <point x="196" y="607" type="line"/>
    </contour>
  </outline>
</glyph>
<glyph name="j" format="1">
  <advance width="313"/>
  <unicode hex="006A"/>
  <outline>
    <contour>
      <point x="340" y="697" type="line"/>
      <point x="281" y="687" type="line"/>
      <point x="257" y="605" type="line"/>
      <point x="315" y="615" type="line"/>
    </contour>
    <contour>
      <point x="-97" y="-10" type="line"/>
      <point x="-93" y="-27"/>
      <point x="-61" y="-180"/>
      <point x="37" y="-180" type="curve" smooth="yes"/>
      <point x="130" y="-180"/>
      <point x="177" y="-72"/>
      <point x="193" y="0" type="curve"/>
      <point x="196" y="17"/>
      <point x="241" y="247"/>
      <point x="295" y="513" type="curve"/>
      <point x="235" y="502" type="line"/>
      <point x="183" y="239"/>
      <point x="137" y="12"/>
      <point x="134" y="-5" type="curve"/>
      <point x="119" y="-73"/>
      <point x="88" y="-129"/>
      <point x="43" y="-129" type="curve" smooth="yes"/>
      <point x="-5" y="-129"/>
      <point x="-31" y="-38"/>
      <point x="-39" y="2" type="curve"/>
    </contour>
  </outline>
</glyph>
<glyph name="m" format="1">
  <advance width="817"/>
  <unicode hex="006D"/>
  <outline>
    <contour>
      <point x="233" y="415"/>
      <point x="314" y="462"/>
      <point x="356" y="462" type="curve" smooth="yes"/>
      <point x="383" y="462"/>
      <point x="415" y="454"/>
      <point x="415" y="393" type="curve" smooth="yes"/>
      <point x="415" y="377"/>
      <point x="413" y="357"/>
      <point x="408" y="333" type="curve" smooth="yes"/>
      <point x="338" y="0" type="line"/>
      <point x="396" y="10" type="line"/>
      <point x="453" y="282" type="line" smooth="yes"/>
      <point x="477" y="396"/>
      <point x="604" y="462"/>
      <point x="658" y="462" type="curve" smooth="yes"/>
      <point x="685" y="462"/>
      <point x="717" y="454"/>
      <point x="717" y="393" type="curve" smooth="yes"/>
      <point x="717" y="377"/>
      <point x="715" y="357"/>
      <point x="710" y="333" type="curve" smooth="yes"/>
      <point x="640" y="0" type="line"/>
      <point x="699" y="10" type="line"/>
      <point x="766" y="326" type="line" smooth="yes"/>
      <point x="772" y="353"/>
      <point x="774" y="376"/>
      <point x="774" y="396" type="curve" smooth="yes"/>
      <point x="774" y="489"/>
      <point x="719" y="511"/>
      <point x="668" y="511" type="curve" smooth="yes"/>
      <point x="614" y="511"/>
      <point x="533" y="467"/>
      <point x="472" y="400" type="curve"/>
      <point x="471" y="490"/>
      <point x="416" y="511"/>
      <point x="366" y="511" type="curve" smooth="yes"/>
      <point x="298" y="511"/>
      <point x="211" y="435"/>
      <point x="142" y="362" type="curve"/>
      <point x="170" y="492" type="line"/>
      <point x="112" y="482" type="line"/>
      <point x="10" y="0" type="line"/>
      <point x="68" y="10" type="line"/>
      <point x="122" y="264" type="line"/>
      <point x="122" y="264"/>
      <point x="128" y="288"/>
      <point x="143" y="306" type="curve" smooth="yes"/>
    </contour>
  </outline>
</glyph>
<glyph name="p" format="1">
  <advance width="518"/>
  <unicode hex="0070"/>
  <outline>
    <contour>
      <point x="270" y="496"/>
      <point x="205" y="465"/>
      <point x="156" y="428" type="curve"/>
      <point x="172" y="499" type="line"/>
      <point x="113" y="488" type="line"/>
      <point x="-32" y="-193" type="line"/>
      <point x="27" y="-183" type="line"/>
      <point x="73" y="35" type="line"/>
      <point x="101" y="22"/>
      <point x="147" y="7"/>
      <point x="199" y="7" type="curve" smooth="yes"/>
      <point x="378" y="7"/>
      <point x="477" y="188"/>
      <point x="477" y="338" type="curve" smooth="yes"/>
      <point x="477" y="420"/>
      <point x="443" y="493"/>
      <point x="358" y="496" type="curve"/>
    </contour>
    <contour>
      <point x="155" y="63"/>
      <point x="103" y="88"/>
      <point x="86" y="97" type="curve"/>
      <point x="142" y="360" type="line"/>
      <point x="164" y="385"/>
      <point x="235" y="447"/>
      <point x="338" y="447" type="curve" smooth="yes"/>
      <point x="408" y="447"/>
      <point x="428" y="390"/>
      <point x="428" y="332" type="curve" smooth="yes"/>
      <point x="428" y="198"/>
      <point x="349" y="63"/>
      <point x="214" y="63" type="curve" smooth="yes"/>
    </contour>
  </outline>
</glyph>
<glyph name="q" format="1">
  <advance width="523"/>
  <unicode hex="0071"/>
  <outline>
    <contour>
      <point x="451" y="490" type="line"/>
      <point x="426" y="494"/>
      <point x="400" y="496"/>
      <point x="377" y="496" type="curve" smooth="yes"/>
      <point x="189" y="496"/>
      <point x="33" y="333"/>
      <point x="33" y="158" type="curve" smooth="yes"/>
      <point x="33" y="61"/>
      <point x="97" y="-10"/>
      <point x="199" y="-10" type="curve" smooth="yes"/>
      <point x="270" y="-10"/>
      <point x="307" y="12"/>
      <point x="344" y="59" type="curve"/>
      <point x="281" y="-196" type="line"/>
      <point x="339" y="-186" type="line"/>
      <point x="510" y="508" type="line"/>
      <point x="456" y="510" type="line"/>
    </contour>
    <contour>
      <point x="371" y="163" type="line" smooth="yes"/>
      <point x="352" y="85"/>
      <point x="289" y="42"/>
      <point x="209" y="42" type="curve" smooth="yes"/>
      <point x="134" y="42"/>
      <point x="85" y="91"/>
      <point x="85" y="166" type="curve" smooth="yes"/>
      <point x="85" y="328"/>
      <point x="229" y="445"/>
      <point x="366" y="445" type="curve" smooth="yes"/>
      <point x="388" y="445"/>
      <point x="417" y="442"/>
      <point x="439" y="438" type="curve"/>
    </contour>
  </outline>
</glyph>
<glyph name="r" format="1">
  <advance width="401"/>
  <unicode hex="0072"/>
  <outline>
    <contour>
      <point x="410" y="428" type="line"/>
      <point x="411" y="432"/>
      <point x="412" y="440"/>
      <point x="412" y="444" type="curve" smooth="yes"/>
      <point x="412" y="477"/>
      <point x="386" y="502"/>
      <point x="344" y="502" type="curve" smooth="yes"/>
      <point x="262" y="502"/>
      <point x="188" y="430"/>
      <point x="145" y="376" type="curve"/>
      <point x="172" y="502" type="line"/>
      <point x="114" y="492" type="line"/>
      <point x="10" y="0" type="line"/>
      <point x="68" y="10" type="line"/>
      <point x="119" y="252" type="line" smooth="yes"/>
      <point x="139" y="348"/>
      <point x="255" y="447"/>
      <point x="326" y="447" type="curve" smooth="yes"/>
      <point x="348" y="447"/>
      <point x="354" y="439"/>
      <point x="354" y="427" type="curve" smooth="yes"/>
      <point x="354" y="423"/>
      <point x="353" y="418"/>
      <point x="352" y="412" type="curve"/>
      <point x="345" y="379" type="line"/>
      <point x="402" y="389" type="line"/>
    </contour>
  </outline>
</glyph>
<glyph name="t" format="1">
  <advance width="373"/>
  <unicode hex="0074"/>
  <outline>
    <contour>
      <point x="404" y="502" type="line"/>
      <point x="266" y="502" type="line"/>
      <point x="302" y="671" type="line"/>
      <point x="243" y="661" type="line"/>
      <point x="209" y="502" type="line"/>
      <point x="71" y="502" type="line"/>
      <point x="59" y="446" type="line"/>
      <point x="197" y="446" type="line"/>
      <point x="103" y="0" type="line"/>
      <point x="162" y="10" type="line"/>
      <point x="254" y="446" type="line"/>
      <point x="392" y="446" type="line"/>
    </contour>
  </outline>
</glyph>
<glyph name="x" format="1">
  <advance width="510"/>
  <unicode hex="0078"/>
  <outline>
    <contour>
      <point x="252" y="222" type="line"/>
      <point x="388" y="0" type="line"/>
      <point x="438" y="36" type="line"/>
      <point x="299" y="257" type="line"/>
      <point x="543" y="462" type="line"/>
      <point x="511" y="501" type="line"/>
      <point x="270" y="296" type="line"/>
      <point x="144" y="502" type="line"/>
      <point x="94" y="466" type="line"/>
      <point x="224" y="260" type="line"/>
      <point x="-37" y="42" type="line"/>
      <point x="-5" y="2" type="line"/>
    </contour>
  </outline>
</glyph>
<glyph name="braceright" format="1">
  <advance width="374"/>
  <unicode hex="007D"/>
  <outline>
    <contour>
      <point x="316" y="360" type="line"/>
      <point x="286" y="372"/>
      <point x="266" y="400"/>
      <point x="266" y="434" type="curve" smooth="yes"/>
      <point x="266" y="439"/>
      <point x="267" y="445"/>
      <point x="268" y="451" type="curve"/>
      <point x="313" y="662" type="line" smooth="yes"/>
      <point x="315" y="673"/>
      <point x="316" y="684"/>
      <point x="316" y="693" type="curve" smooth="yes"/>
      <point x="316" y="781"/>
      <point x="226" y="808"/>
      <point x="173" y="810" type="curve"/>
      <point x="159" y="756" type="line"/>
      <point x="228" y="750"/>
      <point x="261" y="722"/>
      <point x="261" y="681" type="curve" smooth="yes"/>
      <point x="261" y="675"/>
      <point x="260" y="668"/>
      <point x="259" y="662" type="curve"/>
      <point x="216" y="459" type="line" smooth="yes"/>
      <point x="213" y="446"/>
      <point x="212" y="434"/>
      <point x="212" y="423" type="curve" smooth="yes"/>
      <point x="212" y="384"/>
      <point x="227" y="354"/>
      <point x="249" y="335" type="curve"/>
      <point x="189" y="295"/>
      <point x="170" y="243"/>
      <point x="163" y="211" type="curve" smooth="yes"/>
      <point x="123" y="23" type="line" smooth="yes"/>
      <point x="111" y="-34"/>
      <point x="52" y="-68"/>
      <point x="-14" y="-71" type="curve"/>
      <point x="-27" y="-125" type="line"/>
      <point x="33" y="-124"/>
      <point x="152" y="-91"/>
      <point x="177" y="23" type="curve" smooth="yes"/>
      <point x="218" y="212" type="line" smooth="yes"/>
      <point x="228" y="260"/>
      <point x="261" y="293"/>
      <point x="305" y="310" type="curve"/>
    </contour>
  </outline>
</glyph>
<glyph name="copyright" format="1">
  <advance width="576"/>
  <unicode hex="00A9"/>
  <outline>
    <contour>
      <point x="419" y="236"/>
      <point x="558" y="365"/>
      <point x="558" y="510" type="curve" smooth="yes"/>
      <point x="558" y="613"/>
      <point x="485" y="690"/>
      <point x="379" y="690" type="curve" smooth="yes"/>
      <point x="242" y="690"/>
      <point x="104" y="560"/>
      <point x="104" y="415" type="curve" smooth="yes"/>
      <point x="104" y="313"/>
      <point x="177" y="236"/>
      <point x="283" y="236" type="curve" smooth="yes"/>
    </contour>
    <contour>
      <point x="453" y="644"/>
      <point x="511" y="583"/>
      <point x="511" y="501" type="curve" smooth="yes"/>
      <point x="511" y="385"/>
      <point x="401" y="282"/>
      <point x="292" y="282" type="curve" smooth="yes"/>
      <point x="208" y="282"/>
      <point x="151" y="343"/>
      <point x="151" y="424" type="curve" smooth="yes"/>
      <point x="151" y="541"/>
      <point x="260" y="644"/>
      <point x="369" y="644" type="curve" smooth="yes"/>
    </contour>
    <contour>
      <point x="355" y="348"/>
      <point x="411" y="376"/>
      <point x="444" y="436" type="curve"/>
      <point x="402" y="447" type="line"/>
      <point x="381" y="414"/>
      <point x="353" y="394"/>
      <point x="308" y="394" type="curve" smooth="yes"/>
      <point x="278" y="394"/>
      <point x="250" y="415"/>
      <point x="250" y="449" type="curve"/>
      <point x="250" y="449"/>
      <point x="252" y="545"/>
      <point x="351" y="545" type="curve" smooth="yes"/>
      <point x="370" y="545"/>
      <point x="395" y="532"/>
      <point x="405" y="515" type="curve"/>
      <point x="447" y="544" type="line"/>
      <point x="427" y="577"/>
      <point x="388" y="591"/>
      <point x="361" y="591" type="curve" smooth="yes"/>
      <point x="280" y="591"/>
      <point x="203" y="531"/>
      <point x="203" y="441" type="curve" smooth="yes"/>
      <point x="203" y="389"/>
      <point x="242" y="348"/>
      <point x="298" y="348" type="curve" smooth="yes"/>
    </contour>
  </outline>
</glyph>
<glyph name="ordfeminine" format="1">
  <advance width="250"/>
  <unicode hex="00AA"/>
  <outline>
    <contour>
      <point x="330" y="649" type="line"/>
      <point x="304" y="669"/>
      <point x="262" y="677"/>
      <point x="238" y="677" type="curve" smooth="yes"/>
      <point x="140" y="677"/>
      <point x="46" y="566"/>
      <point x="46" y="459" type="curve" smooth="yes"/>
      <point x="46" y="399"/>
      <point x="82" y="358"/>
      <point x="142" y="358" type="curve" smooth="yes"/>
      <point x="166" y="358"/>
      <point x="193" y="365"/>
      <point x="224" y="380" type="curve"/>
      <point x="218" y="352" type="line"/>
      <point x="270" y="362" type="line"/>
    </contour>
    <contour>
      <point x="250" y="628"/>
      <point x="258" y="624"/>
      <point x="277" y="618" type="curve"/>
      <point x="236" y="438" type="line"/>
      <point x="220" y="428"/>
      <point x="182" y="407"/>
      <point x="150" y="407" type="curve" smooth="yes"/>
      <point x="117" y="407"/>
      <point x="97" y="430"/>
      <point x="97" y="467" type="curve" smooth="yes"/>
      <point x="97" y="538"/>
      <point x="155" y="628"/>
      <point x="228" y="628" type="curve" smooth="yes"/>
    </contour>
  </outline>
</glyph>
<glyph name="guillemotleft" format="1">
  <advance width="609"/>
  <unicode hex="00AB"/>
  <outline>
    <contour>
      <point x="236" y="66" type="line"/>
      <point x="280" y="106" type="line"/>
      <point x="151" y="251" type="line"/>
      <point x="360" y="402" type="line"/>
      <point x="333" y="442" type="line"/>
      <point x="70" y="252" type="line"/>
    </contour>
    <contour>
      <point x="441" y="66" type="line"/>
      <point x="485" y="106" type="line"/>
      <point x="356" y="251" type="line"/>
      <point x="565" y="402" type="line"/>
      <point x="538" y="442" type="line"/>
      <point x="275" y="252" type="line"/>
    </contour>
  </outline>
</glyph>
<glyph name="degree" format="1">
  <advance width="267"/>
  <unicode hex="00B0"/>
  <outline>
    <contour>
      <point x="266" y="500"/>
      <point x="348" y="576"/>
      <point x="348" y="661" type="curve" smooth="yes"/>
      <point x="348" y="721"/>
      <point x="303" y="766"/>
      <point x="240" y="766" type="curve" smooth="yes"/>
      <point x="160" y="766"/>
      <point x="76" y="692"/>
      <point x="76" y="606" type="curve" smooth="yes"/>
      <point x="76" y="546"/>
      <point x="120" y="500"/>
      <point x="184" y="500" type="curve" smooth="yes"/>
    </contour>
    <contour>
      <point x="265" y="710"/>
      <point x="291" y="683"/>
      <point x="291" y="648" type="curve" smooth="yes"/>
      <point x="291" y="600"/>
      <point x="243" y="556"/>
      <point x="196" y="556" type="curve" smooth="yes"/>
      <point x="159" y="556"/>
      <point x="133" y="583"/>
      <point x="133" y="617" type="curve" smooth="yes"/>
      <point x="133" y="666"/>
      <point x="181" y="710"/>
      <point x="228" y="710" type="curve" smooth="yes"/>
    </contour>
  </outline>
</glyph>
<glyph name="plusminus" format="1">
  <advance width="435"/>
  <unicode hex="00B1"/>
  <outline>
    <contour>
      <point x="394" y="324" type="line"/>
      <point x="257" y="324" type="line"/>
      <point x="285" y="456" type="line"/>
      <point x="229" y="445" type="line"/>
      <point x="203" y="324" type="line"/>
      <point x="77" y="324" type="line"/>
      <point x="56" y="270" type="line"/>
      <point x="192" y="270" type="line"/>
      <point x="163" y="134" type="line"/>
      <point x="219" y="144" type="line"/>
      <point x="246" y="270" type="line"/>
      <point x="372" y="270" type="line"/>
    </contour>
    <contour>
      <point x="12" y="0" type="line"/>
      <point x="301" y="0" type="line"/>
      <point x="322" y="52" type="line"/>
      <point x="33" y="52" type="line"/>
    </contour>
  </outline>
</glyph>
<glyph name="acute" format="1">
  <advance width="500"/>
  <unicode hex="00B4"/>
  <outline>
    <contour>
      <point x="221" y="602" type="line"/>
      <point x="254" y="567" type="line"/>
      <point x="440" y="679" type="line"/>
      <point x="397" y="724" type="line"/>
    </contour>
  </outline>
</glyph>
<glyph name="mu" format="1">
  <advance width="515"/>
  <unicode hex="00B5"/>
  <outline>
    <contour>
      <point x="50" y="189"/>
      <point x="11" y="-128"/>
      <point x="9" y="-164" type="curve"/>
      <point x="62" y="-174" type="line"/>
      <point x="83" y="13" type="line"/>
      <point x="102" y="1"/>
      <point x="131" y="-5"/>
      <point x="160" y="-5" type="curve" smooth="yes"/>
      <point x="238" y="-5"/>
      <point x="315" y="37"/>
      <point x="348" y="75" type="curve"/>
      <point x="333" y="1" type="line"/>
      <point x="397" y="11" type="line"/>
      <point x="502" y="505" type="line"/>
      <point x="447" y="495" type="line"/>
      <point x="371" y="160" type="line"/>
      <point x="367" y="145"/>
      <point x="356" y="125"/>
      <point x="348" y="117" type="curve"/>
      <point x="322" y="93"/>
      <point x="241" y="44"/>
      <point x="172" y="44" type="curve" smooth="yes"/>
      <point x="128" y="44"/>
      <point x="104" y="56"/>
      <point x="104" y="124" type="curve" smooth="yes"/>
      <point x="104" y="175"/>
      <point x="128" y="367"/>
      <point x="188" y="505" type="curve"/>
      <point x="131" y="495" type="line"/>
      <point x="120" y="464"/>
      <point x="89" y="374"/>
      <point x="72" y="292" type="curve" smooth="yes"/>
    </contour>
  </outline>
</glyph>
<glyph name="periodcentered" format="1">
  <advance width="500"/>
  <unicode hex="00B7"/>
  <outline>
    <contour>
      <point x="299" y="299" type="line"/>
      <point x="224" y="289" type="line"/>
      <point x="197" y="207" type="line"/>
      <point x="274" y="217" type="line"/>
    </contour>
  </outline>
</glyph>
<glyph name="onesuperior" format="1">
  <advance width="179"/>
  <unicode hex="00B9"/>
  <outline>
    <contour>
      <point x="50" y="454" type="line"/>
      <point x="212" y="454" type="line"/>
      <point x="230" y="500" type="line"/>
      <point x="175" y="500" type="line"/>
      <point x="255" y="856" type="line"/>
      <point x="102" y="739" type="line"/>
      <point x="124" y="705" type="line"/>
      <point x="186" y="752" type="line"/>
      <point x="129" y="500" type="line"/>
      <point x="69" y="500" type="line"/>
    </contour>
  </outline>
</glyph>
<glyph name="ordmasculine" format="1">
  <advance width="285"/>
  <unicode hex="00BA"/>
  <outline>
    <contour>
      <point x="243" y="356"/>
      <point x="345" y="458"/>
      <point x="345" y="565" type="curve" smooth="yes"/>
      <point x="345" y="630"/>
      <point x="304" y="681"/>
      <point x="241" y="681" type="curve" smooth="yes"/>
      <point x="148" y="681"/>
      <point x="48" y="579"/>
      <point x="48" y="468" type="curve" smooth="yes"/>
      <point x="48" y="405"/>
      <point x="85" y="356"/>
      <point x="153" y="356" type="curve" smooth="yes"/>
    </contour>
    <contour>
      <point x="269" y="634"/>
      <point x="292" y="596"/>
      <point x="292" y="553" type="curve" smooth="yes"/>
      <point x="292" y="476"/>
      <point x="219" y="402"/>
      <point x="163" y="402" type="curve" smooth="yes"/>
      <point x="125" y="402"/>
      <point x="101" y="433"/>
      <point x="101" y="477" type="curve" smooth="yes"/>
      <point x="101" y="558"/>
      <point x="171" y="634"/>
      <point x="228" y="634" type="curve" smooth="yes"/>
    </contour>
  </outline>
</glyph>
<glyph name="guillemotright" format="1">
  <advance width="609"/>
  <unicode hex="00BB"/>
  <outline>
    <contour>
      <point x="88" y="66" type="line"/>
      <point x="332" y="252" type="line"/>
      <point x="149" y="442" type="line"/>
      <point x="106" y="402" type="line"/>
      <point x="250" y="251" type="line"/>
      <point x="59" y="106" type="line"/>
    </contour>
    <contour>
      <point x="292" y="66" type="line"/>
      <point x="537" y="252" type="line"/>
      <point x="354" y="442" type="line"/>
      <point x="311" y="402" type="line"/>
      <point x="455" y="251" type="line"/>
      <point x="264" y="106" type="line"/>
    </contour>
  </outline>
</glyph>
<glyph name="Atilde" format="1">
  <advance width="623"/>
  <unicode hex="00C3"/>
  <outline>
    <contour>
      <point x="449" y="680" type="line"/>
      <point x="376" y="667" type="line"/>
      <point x="133" y="253" type="line"/>
      <point x="55" y="238" type="line"/>
      <point x="55" y="184" type="line"/>
      <point x="97" y="192" type="line"/>
      <point x="0" y="26" type="line"/>
      <point x="44" y="0" type="line"/>
      <point x="164" y="206" type="line"/>
      <point x="440" y="261" type="line"/>
      <point x="471" y="1" type="line"/>
      <point x="525" y="33" type="line"/>
    </contour>
    <contour>
      <point x="200" y="267" type="line"/>
      <point x="400" y="607" type="line"/>
      <point x="434" y="313" type="line"/>
    </contour>
    <contour>
      <point x="482" y="762"/>
      <point x="475" y="776"/>
      <point x="467" y="794" type="curve" smooth="yes"/>
      <point x="453" y="826"/>
      <point x="436" y="870"/>
      <point x="382" y="870" type="curve" smooth="yes"/>
      <point x="321" y="870"/>
      <point x="276" y="813"/>
      <point x="250" y="763" type="curve"/>
      <point x="295" y="745" type="line"/>
      <point x="306" y="770"/>
      <point x="343" y="829"/>
      <point x="374" y="829" type="curve" smooth="yes"/>
      <point x="388" y="829"/>
      <point x="396" y="811"/>
      <point x="406" y="789" type="curve" smooth="yes"/>
      <point x="420" y="758"/>
      <point x="439" y="721"/>
      <point x="487" y="721" type="curve" smooth="yes"/>
      <point x="538" y="721"/>
      <point x="596" y="772"/>
      <point x="624" y="837" type="curve"/>
      <point x="579" y="853" type="line"/>
      <point x="564" y="824"/>
      <point x="528" y="762"/>
      <point x="495" y="762" type="curve" smooth="yes"/>
    </contour>
  </outline>
</glyph>
<glyph name="Aring" format="1">
  <advance width="623"/>
  <unicode hex="00C5"/>
  <outline>
    <contour>
      <point x="476" y="721"/>
      <point x="570" y="770"/>
      <point x="570" y="856" type="curve" smooth="yes"/>
      <point x="570" y="900"/>
      <point x="537" y="940"/>
      <point x="476" y="940" type="curve" smooth="yes"/>
      <point x="396" y="940"/>
      <point x="315" y="875"/>
      <point x="315" y="804" type="curve" smooth="yes"/>
      <point x="315" y="757"/>
      <point x="351" y="721"/>
      <point x="410" y="721" type="curve" smooth="yes"/>
    </contour>
    <contour>
      <point x="500" y="893"/>
      <point x="528" y="871"/>
      <point x="528" y="844" type="curve" smooth="yes"/>
      <point x="528" y="800"/>
      <point x="467" y="767"/>
      <point x="422" y="767" type="curve" smooth="yes"/>
      <point x="385" y="767"/>
      <point x="358" y="785"/>
      <point x="358" y="813" type="curve" smooth="yes"/>
      <point x="358" y="864"/>
      <point x="427" y="893"/>
      <point x="463" y="893" type="curve" smooth="yes"/>
    </contour>
    <contour>
      <point x="449" y="680" type="line"/>
      <point x="376" y="667" type="line"/>
      <point x="133" y="253" type="line"/>
      <point x="55" y="238" type="line"/>
      <point x="55" y="184" type="line"/>
      <point x="97" y="192" type="line"/>
      <point x="0" y="26" type="line"/>
      <point x="44" y="0" type="line"/>
      <point x="164" y="206" type="line"/>
      <point x="440" y="261" type="line"/>
      <point x="471" y="1" type="line"/>
      <point x="525" y="33" type="line"/>
    </contour>
    <contour>
      <point x="200" y="267" type="line"/>
      <point x="400" y="607" type="line"/>
      <point x="434" y="313" type="line"/>
    </contour>
  </outline>
</glyph>
<glyph name="AE" format="1">
  <advance width="1049"/>
  <unicode hex="00C6"/>
  <outline>
    <contour>
      <point x="515" y="56" type="line"/>
      <point x="573" y="326" type="line"/>
      <point x="941" y="326" type="line"/>
      <point x="970" y="382" type="line"/>
      <point x="585" y="382" type="line"/>
      <point x="636" y="625" type="line"/>
      <point x="1051" y="625" type="line"/>
      <point x="1073" y="681" type="line"/>
      <point x="602" y="681" type="line"/>
      <point x="261" y="310" type="line"/>
      <point x="161" y="290" type="line"/>
      <point x="161" y="237" type="line"/>
      <point x="202" y="246" type="line"/>
      <point x="0" y="26" type="line"/>
      <point x="43" y="0" type="line"/>
      <point x="282" y="261" type="line"/>
      <point x="513" y="307" type="line"/>
      <point x="448" y="0" type="line"/>
      <point x="914" y="0" type="line"/>
      <point x="945" y="56" type="line"/>
    </contour>
    <contour>
      <point x="524" y="362" type="line"/>
      <point x="343" y="326" type="line"/>
      <point x="569" y="572" type="line"/>
    </contour>
  </outline>
</glyph>
<glyph name="Egrave" format="1">
  <advance width="611"/>
  <unicode hex="00C8"/>
  <outline>
    <contour>
      <point x="77" y="56" type="line"/>
      <point x="135" y="326" type="line"/>
      <point x="503" y="326" type="line"/>
      <point x="532" y="382" type="line"/>
      <point x="147" y="382" type="line"/>
      <point x="198" y="625" type="line"/>
      <point x="613" y="625" type="line"/>
      <point x="635" y="681" type="line"/>
      <point x="154" y="681" type="line"/>
      <point x="10" y="0" type="line"/>
      <point x="476" y="0" type="line"/>
      <point x="507" y="56" type="line"/>
    </contour>
    <contour>
      <point x="480" y="754" type="line"/>
      <point x="385" y="900" type="line"/>
      <point x="318" y="866" type="line"/>
      <point x="428" y="726" type="line"/>
    </contour>
  </outline>
</glyph>
<glyph name="Edieresis" format="1">
  <advance width="611"/>
  <unicode hex="00CB"/>
  <outline>
    <contour>
      <point x="77" y="56" type="line"/>
      <point x="135" y="326" type="line"/>
      <point x="503" y="326" type="line"/>
      <point x="532" y="382" type="line"/>
      <point x="147" y="382" type="line"/>
      <point x="198" y="625" type="line"/>
      <point x="613" y="625" type="line"/>
      <point x="635" y="681" type="line"/>
      <point x="154" y="681" type="line"/>
      <point x="10" y="0" type="line"/>
      <point x="476" y="0" type="line"/>
      <point x="507" y="56" type="line"/>
    </contour>
    <contour>
      <point x="390" y="819" type="line"/>
      <point x="314" y="809" type="line"/>
      <point x="288" y="727" type="line"/>
      <point x="364" y="737" type="line"/>
    </contour>
    <contour>
      <point x="551" y="819" type="line"/>
      <point x="475" y="809" type="line"/>
      <point x="449" y="727" type="line"/>
      <point x="525" y="737" type="line"/>
    </contour>
  </outline>
</glyph>
<glyph name="Iacute" format="1">
  <advance width="437"/>
  <unicode hex="00CD"/>
  <outline>
    <contour>
      <point x="444" y="625" type="line"/>
      <point x="466" y="681" type="line"/>
      <point x="159" y="681" type="line"/>
      <point x="137" y="625" type="line"/>
      <point x="270" y="625" type="line"/>
      <point x="149" y="56" type="line"/>
      <point x="26" y="56" type="line"/>
      <point x="5" y="0" type="line"/>
      <point x="312" y="0" type="line"/>
      <point x="333" y="56" type="line"/>
      <point x="205" y="56" type="line"/>
      <point x="326" y="625" type="line"/>
    </contour>
    <contour>
      <point x="232" y="771" type="line"/>
      <point x="266" y="736" type="line"/>
      <point x="452" y="848" type="line"/>
      <point x="408" y="893" type="line"/>
    </contour>
  </outline>
</glyph>
<glyph name="Odieresis" format="1">
  <advance width="660"/>
  <unicode hex="00D6"/>
  <outline>
    <contour>
      <point x="432" y="819" type="line"/>
      <point x="356" y="809" type="line"/>
      <point x="330" y="727" type="line"/>
      <point x="406" y="737" type="line"/>
    </contour>
    <contour>
      <point x="592" y="819" type="line"/>
      <point x="516" y="809" type="line"/>
      <point x="490" y="727" type="line"/>
      <point x="566" y="737" type="line"/>
    </contour>
    <contour>
      <point x="428" y="0"/>
      <point x="632" y="219"/>
      <point x="632" y="453" type="curve" smooth="yes"/>
      <point x="632" y="585"/>
      <point x="561" y="684"/>
      <point x="441" y="684" type="curve" smooth="yes"/>
      <point x="267" y="684"/>
      <point x="62" y="465"/>
      <point x="62" y="232" type="curve" smooth="yes"/>
      <point x="62" y="100"/>
      <point x="133" y="0"/>
      <point x="254" y="0" type="curve" smooth="yes"/>
    </contour>
    <contour>
      <point x="521" y="632"/>
      <point x="576" y="542"/>
      <point x="576" y="435" type="curve" smooth="yes"/>
      <point x="576" y="236"/>
      <point x="402" y="52"/>
      <point x="265" y="52" type="curve" smooth="yes"/>
      <point x="171" y="52"/>
      <point x="116" y="132"/>
      <point x="116" y="241" type="curve" smooth="yes"/>
      <point x="116" y="449"/>
      <point x="289" y="632"/>
      <point x="423" y="632" type="curve" smooth="yes"/>
    </contour>
  </outline>
</glyph>
<glyph name="Oslash" format="1">
  <advance width="660"/>
  <unicode hex="00D8"/>
  <outline>
    <contour>
      <point x="642" y="714" type="line"/>
      <point x="602" y="741" type="line"/>
      <point x="538" y="656" type="line"/>
      <point x="510" y="674"/>
      <point x="477" y="683"/>
      <point x="441" y="683" type="curve" smooth="yes"/>
      <point x="266" y="683"/>
      <point x="61" y="462"/>
      <point x="61" y="227" type="curve" smooth="yes"/>
      <point x="61" y="172"/>
      <point x="74" y="123"/>
      <point x="98" y="84" type="curve"/>
      <point x="28" y="-7" type="line"/>
      <point x="67" y="-33" type="line"/>
      <point x="129" y="46" type="line"/>
      <point x="162" y="16"/>
      <point x="205" y="-1"/>
      <point x="253" y="-1" type="curve" smooth="yes"/>
      <point x="429" y="-1"/>
      <point x="632" y="220"/>
      <point x="632" y="455" type="curve" smooth="yes"/>
      <point x="632" y="522"/>
      <point x="615" y="585"/>
      <point x="575" y="626" type="curve"/>
    </contour>
    <contour>
      <point x="137" y="134" type="line"/>
      <point x="123" y="164"/>
      <point x="116" y="200"/>
      <point x="116" y="240" type="curve" smooth="yes"/>
      <point x="116" y="448"/>
      <point x="289" y="631"/>
      <point x="423" y="631" type="curve" smooth="yes"/>
      <point x="452" y="631"/>
      <point x="478" y="623"/>
      <point x="501" y="608" type="curve"/>
    </contour>
    <contour>
      <point x="224" y="51"/>
      <point x="190" y="65"/>
      <point x="164" y="92" type="curve"/>
      <point x="536" y="575" type="line"/>
      <point x="562" y="538"/>
      <point x="576" y="487"/>
      <point x="576" y="432" type="curve" smooth="yes"/>
      <point x="576" y="293"/>
      <point x="443" y="51"/>
      <point x="264" y="51" type="curve" smooth="yes"/>
    </contour>
  </outline>
</glyph>
<glyph name="Ucircumflex" format="1">
  <advance width="684"/>
  <unicode hex="00DB"/>
  <outline>
    <contour>
      <point x="542" y="0"/>
      <point x="615" y="245"/>
      <point x="664" y="476" type="curve" smooth="yes"/>
      <point x="679" y="550"/>
      <point x="700" y="656"/>
      <point x="705" y="680" type="curve"/>
      <point x="647" y="669" type="line"/>
      <point x="640" y="634"/>
      <point x="616" y="514"/>
      <point x="598" y="431" type="curve" smooth="yes"/>
      <point x="562" y="260"/>
      <point x="501" y="49"/>
      <point x="297" y="49" type="curve" smooth="yes"/>
      <point x="172" y="49"/>
      <point x="133" y="127"/>
      <point x="133" y="237" type="curve" smooth="yes"/>
      <point x="133" y="364"/>
      <point x="195" y="612"/>
      <point x="214" y="680" type="curve"/>
      <point x="155" y="670" type="line"/>
      <point x="132" y="572"/>
      <point x="77" y="346"/>
      <point x="77" y="225" type="curve" smooth="yes"/>
      <point x="77" y="88"/>
      <point x="128" y="0"/>
      <point x="287" y="0" type="curve" smooth="yes"/>
    </contour>
    <contour>
      <point x="336" y="718" type="line"/>
      <point x="470" y="806" type="line"/>
      <point x="546" y="719" type="line"/>
      <point x="591" y="759" type="line"/>
      <point x="488" y="881" type="line"/>
      <point x="312" y="760" type="line"/>
    </contour>
  </outline>
</glyph>
<glyph name="germandbls" format="1">
  <advance width="525"/>
  <unicode hex="00DF"/>
  <outline>
    <contour>
      <point x="426" y="400"/>
      <point x="457" y="454"/>
      <point x="457" y="511" type="curve" smooth="yes"/>
      <point x="457" y="585"/>
      <point x="403" y="640"/>
      <point x="326" y="640" type="curve" smooth="yes"/>
      <point x="236" y="640"/>
      <point x="147" y="567"/>
      <point x="128" y="477" type="curve" smooth="yes"/>
      <point x="27" y="0" type="line"/>
      <point x="84" y="26" type="line"/>
      <point x="180" y="477" type="line" smooth="yes"/>
      <point x="193" y="538"/>
      <point x="253" y="588"/>
      <point x="314" y="588" type="curve" smooth="yes"/>
      <point x="367" y="588"/>
      <point x="403" y="550"/>
      <point x="403" y="500" type="curve" smooth="yes"/>
      <point x="403" y="447"/>
      <point x="368" y="379"/>
      <point x="259" y="364" type="curve"/>
      <point x="231" y="310" type="line"/>
      <point x="294" y="319"/>
      <point x="303" y="320"/>
      <point x="311" y="320" type="curve" smooth="yes"/>
      <point x="384" y="320"/>
      <point x="424" y="266"/>
      <point x="424" y="205" type="curve" smooth="yes"/>
      <point x="424" y="112"/>
      <point x="333" y="28"/>
      <point x="245" y="28" type="curve" smooth="yes"/>
      <point x="221" y="28"/>
      <point x="199" y="34"/>
      <point x="163" y="56" type="curve"/>
      <point x="130" y="10" type="line"/>
      <point x="172" y="-16"/>
      <point x="201" y="-24"/>
      <point x="234" y="-24" type="curve" smooth="yes"/>
      <point x="357" y="-24"/>
      <point x="478" y="92"/>
      <point x="478" y="216" type="curve" smooth="yes"/>
      <point x="478" y="285"/>
      <point x="440" y="339"/>
      <point x="379" y="361" type="curve"/>
    </contour>
  </outline>
</glyph>
<glyph name="atilde" format="1">
  <advance width="513"/>
  <unicode hex="00E3"/>
  <outline>
    <contour>
      <point x="484" y="472" type="line"/>
      <point x="444" y="495"/>
      <point x="396" y="513"/>
      <point x="341" y="513" type="curve" smooth="yes"/>
      <point x="172" y="513"/>
      <point x="35" y="310"/>
      <point x="35" y="164" type="curve" smooth="yes"/>
      <point x="35" y="69"/>
      <point x="92" y="7"/>
      <point x="184" y="7" type="curve" smooth="yes"/>
      <point x="240" y="7"/>
      <point x="300" y="33"/>
      <point x="339" y="54" type="curve"/>
      <point x="328" y="0" type="line"/>
      <point x="386" y="11" type="line"/>
    </contour>
    <contour>
      <point x="119" y="63"/>
      <point x="94" y="119"/>
      <point x="94" y="178" type="curve" smooth="yes"/>
      <point x="94" y="235"/>
      <point x="158" y="458"/>
      <point x="334" y="458" type="curve" smooth="yes"/>
      <point x="368" y="458"/>
      <point x="406" y="444"/>
      <point x="423" y="436" type="curve"/>
      <point x="351" y="120" type="line"/>
      <point x="325" y="103"/>
      <point x="254" y="62"/>
      <point x="194" y="62" type="curve" smooth="yes"/>
    </contour>
    <contour>
      <point x="393" y="597"/>
      <point x="386" y="611"/>
      <point x="378" y="629" type="curve" smooth="yes"/>
      <point x="364" y="661"/>
      <point x="347" y="705"/>
      <point x="293" y="705" type="curve" smooth="yes"/>
      <point x="232" y="705"/>
      <point x="187" y="648"/>
      <point x="161" y="598" type="curve"/>
      <point x="206" y="580" type="line"/>
      <point x="217" y="605"/>
      <point x="254" y="664"/>
      <point x="285" y="664" type="curve" smooth="yes"/>
      <point x="299" y="664"/>
      <point x="307" y="646"/>
      <point x="317" y="624" type="curve" smooth="yes"/>
      <point x="331" y="593"/>
      <point x="350" y="556"/>
      <point x="398" y="556" type="curve" smooth="yes"/>
      <point x="449" y="556"/>
      <point x="507" y="607"/>
      <point x="535" y="672" type="curve"/>
      <point x="490" y="688" type="line"/>
      <point x="475" y="659"/>
      <point x="439" y="597"/>
      <point x="406" y="597" type="curve" smooth="yes"/>
    </contour>
  </outline>
</glyph>
<glyph name="aring" format="1">
  <advance width="504"/>
  <unicode hex="00E5"/>
  <outline>
    <contour>
      <point x="400" y="563"/>
      <point x="490" y="619"/>
      <point x="490" y="701" type="curve" smooth="yes"/>
      <point x="490" y="754"/>
      <point x="442" y="782"/>
      <point x="384" y="782" type="curve"/>
      <point x="316" y="778"/>
      <point x="234" y="719"/>
      <point x="234" y="647" type="curve" smooth="yes"/>
      <point x="234" y="603"/>
      <point x="267" y="563"/>
      <point x="328" y="563" type="curve" smooth="yes"/>
    </contour>
    <contour>
      <point x="417" y="736"/>
      <point x="446" y="716"/>
      <point x="446" y="687" type="curve" smooth="yes"/>
      <point x="446" y="635"/>
      <point x="377" y="610"/>
      <point x="340" y="610" type="curve" smooth="yes"/>
      <point x="309" y="610"/>
      <point x="277" y="625"/>
      <point x="277" y="656" type="curve" smooth="yes"/>
      <point x="277" y="688"/>
      <point x="324" y="736"/>
      <point x="383" y="736" type="curve" smooth="yes"/>
    </contour>
    <contour>
      <point x="484" y="472" type="line"/>
      <point x="444" y="495"/>
      <point x="396" y="513"/>
      <point x="341" y="513" type="curve" smooth="yes"/>
      <point x="172" y="513"/>
      <point x="35" y="310"/>
      <point x="35" y="164" type="curve" smooth="yes"/>
      <point x="35" y="69"/>
      <point x="92" y="7"/>
      <point x="184" y="7" type="curve" smooth="yes"/>
      <point x="240" y="7"/>
      <point x="300" y="33"/>
      <point x="339" y="54" type="curve"/>
      <point x="328" y="0" type="line"/>
      <point x="386" y="11" type="line"/>
    </contour>
    <contour>
      <point x="119" y="63"/>
      <point x="94" y="119"/>
      <point x="94" y="178" type="curve" smooth="yes"/>
      <point x="94" y="235"/>
      <point x="158" y="458"/>
      <point x="334" y="458" type="curve" smooth="yes"/>
      <point x="368" y="458"/>
      <point x="406" y="444"/>
      <point x="423" y="436" type="curve"/>
      <point x="351" y="120" type="line"/>
      <point x="325" y="103"/>
      <point x="254" y="62"/>
      <point x="194" y="62" type="curve" smooth="yes"/>
    </contour>
  </outline>
</glyph>
<glyph name="ae" format="1">
  <advance width="864"/>
  <unicode hex="00E6"/>
  <outline>
    <contour>
      <point x="639" y="0"/>
      <point x="706" y="27"/>
      <point x="763" y="76" type="curve"/>
      <point x="733" y="111" type="line"/>
      <point x="688" y="72"/>
      <point x="635" y="51"/>
      <point x="584" y="51" type="curve" smooth="yes"/>
      <point x="510" y="51"/>
      <point x="456" y="95"/>
      <point x="438" y="159" type="curve"/>
      <point x="834" y="355" type="line"/>
      <point x="828" y="435"/>
      <point x="769" y="502"/>
      <point x="680" y="502" type="curve" smooth="yes"/>
      <point x="602" y="502"/>
      <point x="526" y="464"/>
      <point x="470" y="406" type="curve"/>
      <point x="484" y="472" type="line"/>
      <point x="444" y="495"/>
      <point x="396" y="513"/>
      <point x="341" y="513" type="curve" smooth="yes"/>
      <point x="172" y="513"/>
      <point x="35" y="310"/>
      <point x="35" y="164" type="curve" smooth="yes"/>
      <point x="35" y="69"/>
      <point x="92" y="7"/>
      <point x="184" y="7" type="curve" smooth="yes"/>
      <point x="240" y="7"/>
      <point x="300" y="33"/>
      <point x="339" y="54" type="curve"/>
      <point x="328" y="0" type="line"/>
      <point x="386" y="11" type="line"/>
      <point x="404" y="95" type="line"/>
      <point x="435" y="37"/>
      <point x="497" y="0"/>
      <point x="574" y="0" type="curve" smooth="yes"/>
    </contour>
    <contour>
      <point x="119" y="63"/>
      <point x="94" y="119"/>
      <point x="94" y="178" type="curve" smooth="yes"/>
      <point x="94" y="235"/>
      <point x="158" y="458"/>
      <point x="334" y="458" type="curve" smooth="yes"/>
      <point x="368" y="458"/>
      <point x="406" y="444"/>
      <point x="423" y="436" type="curve"/>
      <point x="351" y="120" type="line"/>
      <point x="325" y="103"/>
      <point x="254" y="62"/>
      <point x="194" y="62" type="curve" smooth="yes"/>
    </contour>
    <contour>
      <point x="717" y="451"/>
      <point x="757" y="424"/>
      <point x="773" y="378" type="curve"/>
      <point x="433" y="208" type="line"/>
      <point x="433" y="330"/>
      <point x="545" y="451"/>
      <point x="670" y="451" type="curve" smooth="yes"/>
    </contour>
  </outline>
</glyph>
<glyph name="eacute" format="1">
  <advance width="527"/>
  <unicode hex="00E9"/>
  <outline>
    <contour>
      <point x="302" y="0"/>
      <point x="369" y="27"/>
      <point x="426" y="76" type="curve"/>
      <point x="396" y="111" type="line"/>
      <point x="351" y="72"/>
      <point x="298" y="51"/>
      <point x="247" y="51" type="curve" smooth="yes"/>
      <point x="173" y="51"/>
      <point x="119" y="95"/>
      <point x="101" y="159" type="curve"/>
      <point x="497" y="355" type="line"/>
      <point x="491" y="435"/>
      <point x="432" y="502"/>
      <point x="343" y="502" type="curve" smooth="yes"/>
      <point x="191" y="502"/>
      <point x="42" y="357"/>
      <point x="42" y="197" type="curve" smooth="yes"/>
      <point x="42" y="85"/>
      <point x="121" y="0"/>
      <point x="237" y="0" type="curve" smooth="yes"/>
    </contour>
    <contour>
      <point x="379" y="451"/>
      <point x="419" y="424"/>
      <point x="435" y="378" type="curve"/>
      <point x="95" y="208" type="line"/>
      <point x="95" y="330"/>
      <point x="207" y="451"/>
      <point x="332" y="451" type="curve" smooth="yes"/>
    </contour>
    <contour>
      <point x="240" y="602" type="line"/>
      <point x="273" y="567" type="line"/>
      <point x="459" y="679" type="line"/>
      <point x="416" y="724" type="line"/>
    </contour>
  </outline>
</glyph>
<glyph name="ecircumflex" format="1">
  <advance width="527"/>
  <unicode hex="00EA"/>
  <outline>
    <contour>
      <point x="302" y="0"/>
      <point x="369" y="27"/>
      <point x="426" y="76" type="curve"/>
      <point x="396" y="111" type="line"/>
      <point x="351" y="72"/>
      <point x="298" y="51"/>
      <point x="247" y="51" type="curve" smooth="yes"/>
      <point x="173" y="51"/>
      <point x="119" y="95"/>
      <point x="101" y="159" type="curve"/>
      <point x="497" y="355" type="line"/>
      <point x="491" y="435"/>
      <point x="432" y="502"/>
      <point x="343" y="502" type="curve" smooth="yes"/>
      <point x="191" y="502"/>
      <point x="42" y="357"/>
      <point x="42" y="197" type="curve" smooth="yes"/>
      <point x="42" y="85"/>
      <point x="121" y="0"/>
      <point x="237" y="0" type="curve" smooth="yes"/>
    </contour>
    <contour>
      <point x="379" y="451"/>
      <point x="419" y="424"/>
      <point x="435" y="378" type="curve"/>
      <point x="95" y="208" type="line"/>
      <point x="95" y="330"/>
      <point x="207" y="451"/>
      <point x="332" y="451" type="curve" smooth="yes"/>
    </contour>
    <contour>
      <point x="219" y="549" type="line"/>
      <point x="352" y="637" type="line"/>
      <point x="429" y="550" type="line"/>
      <point x="474" y="590" type="line"/>
      <point x="371" y="712" type="line"/>
      <point x="195" y="591" type="line"/>
    </contour>
  </outline>
</glyph>
<glyph name="igrave" format="1">
  <advance width="217"/>
  <unicode hex="00EC"/>
  <outline>
    <contour>
      <point x="256" y="585" type="line"/>
      <point x="161" y="731" type="line"/>
      <point x="94" y="697" type="line"/>
      <point x="204" y="557" type="line"/>
    </contour>
    <contour>
      <point x="126" y="491" type="line"/>
      <point x="22" y="0" type="line"/>
      <point x="83" y="10" type="line"/>
      <point x="187" y="500" type="line"/>
    </contour>
  </outline>
</glyph>
<glyph name="iacute" format="1">
  <advance width="205"/>
  <unicode hex="00ED"/>
  <outline>
    <contour>
      <point x="114" y="491" type="line"/>
      <point x="10" y="0" type="line"/>
      <point x="71" y="10" type="line"/>
      <point x="175" y="500" type="line"/>
    </contour>
    <contour>
      <point x="96" y="602" type="line"/>
      <point x="129" y="567" type="line"/>
      <point x="315" y="679" type="line"/>
      <point x="272" y="724" type="line"/>
    </contour>
  </outline>
</glyph>
<glyph name="idieresis" format="1">
  <advance width="246"/>
  <unicode hex="00EF"/>
  <outline>
    <contour>
      <point x="142" y="491" type="line"/>
      <point x="38" y="0" type="line"/>
      <point x="99" y="10" type="line"/>
      <point x="203" y="500" type="line"/>
    </contour>
    <contour>
      <point x="180" y="663" type="line"/>
      <point x="105" y="653" type="line"/>
      <point x="79" y="571" type="line"/>
      <point x="155" y="581" type="line"/>
    </contour>
    <contour>
      <point x="340" y="663" type="line"/>
      <point x="265" y="653" type="line"/>
      <point x="239" y="571" type="line"/>
      <point x="315" y="581" type="line"/>
    </contour>
  </outline>
</glyph>
<glyph name="eth" format="1">
  <advance width="482"/>
  <unicode hex="00F0"/>
  <outline>
    <contour>
      <point x="381" y="602"/>
      <point x="435" y="626"/>
      <point x="465" y="638" type="curve"/>
      <point x="459" y="674" type="line"/>
      <point x="418" y="659"/>
      <point x="362" y="633"/>
      <point x="322" y="613" type="curve"/>
      <point x="304" y="635"/>
      <point x="283" y="660"/>
      <point x="273" y="668" type="curve"/>
      <point x="232" y="630" type="line"/>
      <point x="236" y="627"/>
      <point x="253" y="608"/>
      <point x="270" y="587" type="curve"/>
      <point x="234" y="568"/>
      <point x="184" y="541"/>
      <point x="148" y="520" type="curve"/>
      <point x="159" y="484" type="line"/>
      <point x="171" y="492"/>
      <point x="236" y="529"/>
      <point x="293" y="557" type="curve"/>
      <point x="316" y="524"/>
      <point x="342" y="482"/>
      <point x="360" y="435" type="curve"/>
      <point x="191" y="429"/>
      <point x="27" y="307"/>
      <point x="27" y="133" type="curve" smooth="yes"/>
      <point x="27" y="52"/>
      <point x="80" y="0"/>
      <point x="160" y="0" type="curve" smooth="yes"/>
      <point x="322" y="0"/>
      <point x="438" y="178"/>
      <point x="438" y="323" type="curve" smooth="yes"/>
      <point x="438" y="422"/>
      <point x="394" y="513"/>
      <point x="343" y="583" type="curve"/>
    </contour>
    <contour>
      <point x="115" y="51"/>
      <point x="79" y="85"/>
      <point x="79" y="142" type="curve" smooth="yes"/>
      <point x="79" y="299"/>
      <point x="228" y="385"/>
      <point x="376" y="385" type="curve"/>
      <point x="382" y="362"/>
      <point x="386" y="338"/>
      <point x="386" y="313" type="curve" smooth="yes"/>
      <point x="386" y="201"/>
      <point x="297" y="51"/>
      <point x="170" y="51" type="curve" smooth="yes"/>
    </contour>
  </outline>
</glyph>
<glyph name="otilde" format="1">
  <advance width="535"/>
  <unicode hex="00F5"/>
  <outline>
    <contour>
      <point x="334" y="0"/>
      <point x="493" y="154"/>
      <point x="493" y="323" type="curve" smooth="yes"/>
      <point x="493" y="423"/>
      <point x="431" y="500"/>
      <point x="334" y="500" type="curve" smooth="yes"/>
      <point x="195" y="500"/>
      <point x="37" y="343"/>
      <point x="37" y="176" type="curve" smooth="yes"/>
      <point x="37" y="75"/>
      <point x="99" y="0"/>
      <point x="197" y="0" type="curve" smooth="yes"/>
    </contour>
    <contour>
      <point x="389" y="452"/>
      <point x="433" y="390"/>
      <point x="433" y="312" type="curve" smooth="yes"/>
      <point x="433" y="178"/>
      <point x="309" y="48"/>
      <point x="207" y="48" type="curve" smooth="yes"/>
      <point x="135" y="48"/>
      <point x="95" y="106"/>
      <point x="95" y="181" type="curve" smooth="yes"/>
      <point x="95" y="317"/>
      <point x="214" y="452"/>
      <point x="319" y="452" type="curve" smooth="yes"/>
    </contour>
    <contour>
      <point x="413" y="597"/>
      <point x="406" y="611"/>
      <point x="398" y="629" type="curve" smooth="yes"/>
      <point x="384" y="661"/>
      <point x="367" y="705"/>
      <point x="313" y="705" type="curve" smooth="yes"/>
      <point x="252" y="705"/>
      <point x="207" y="648"/>
      <point x="181" y="598" type="curve"/>
      <point x="226" y="580" type="line"/>
      <point x="237" y="605"/>
      <point x="274" y="664"/>
      <point x="305" y="664" type="curve" smooth="yes"/>
      <point x="319" y="664"/>
      <point x="327" y="646"/>
      <point x="337" y="624" type="curve" smooth="yes"/>
      <point x="351" y="593"/>
      <point x="370" y="556"/>
      <point x="418" y="556" type="curve" smooth="yes"/>
      <point x="469" y="556"/>
      <point x="527" y="607"/>
      <point x="555" y="672" type="curve"/>
      <point x="510" y="688" type="line"/>
      <point x="495" y="659"/>
      <point x="459" y="597"/>
      <point x="426" y="597" type="curve" smooth="yes"/>
    </contour>
  </outline>
</glyph>
<glyph name="oslash" format="1">
  <advance width="535"/>
  <unicode hex="00F8"/>
  <outline>
    <contour>
      <point x="502" y="519" type="line"/>
      <point x="463" y="545" type="line"/>
      <point x="413" y="480" type="line"/>
      <point x="389" y="493"/>
      <point x="363" y="500"/>
      <point x="334" y="500" type="curve" smooth="yes"/>
      <point x="194" y="500"/>
      <point x="37" y="342"/>
      <point x="37" y="174" type="curve" smooth="yes"/>
      <point x="37" y="128"/>
      <point x="50" y="87"/>
      <point x="74" y="56" type="curve"/>
      <point x="22" y="-9" type="line"/>
      <point x="60" y="-35" type="line"/>
      <point x="108" y="25" type="line"/>
      <point x="133" y="9"/>
      <point x="164" y="0"/>
      <point x="197" y="0" type="curve" smooth="yes"/>
      <point x="336" y="0"/>
      <point x="493" y="155"/>
      <point x="493" y="325" type="curve" smooth="yes"/>
      <point x="493" y="374"/>
      <point x="478" y="420"/>
      <point x="448" y="451" type="curve"/>
    </contour>
    <contour>
      <point x="112" y="104" type="line"/>
      <point x="101" y="126"/>
      <point x="95" y="153"/>
      <point x="95" y="183" type="curve" smooth="yes"/>
      <point x="95" y="318"/>
      <point x="215" y="452"/>
      <point x="319" y="452" type="curve" smooth="yes"/>
      <point x="340" y="452"/>
      <point x="359" y="446"/>
      <point x="377" y="436" type="curve"/>
    </contour>
    <contour>
      <point x="182" y="48"/>
      <point x="160" y="55"/>
      <point x="142" y="68" type="curve"/>
      <point x="409" y="402" type="line"/>
      <point x="424" y="378"/>
      <point x="432" y="347"/>
      <point x="432" y="313" type="curve" smooth="yes"/>
      <point x="432" y="199"/>
      <point x="327" y="48"/>
      <point x="207" y="48" type="curve" smooth="yes"/>
    </contour>
  </outline>
</glyph>
<glyph name="ugrave" format="1">
  <advance width="516"/>
  <unicode hex="00F9"/>
  <outline>
    <contour>
      <point x="422" y="585" type="line"/>
      <point x="327" y="731" type="line"/>
      <point x="260" y="697" type="line"/>
      <point x="370" y="557" type="line"/>
    </contour>
    <contour>
      <point x="144" y="374"/>
      <point x="182" y="488"/>
      <point x="189" y="504" type="curve"/>
      <point x="132" y="494" type="line"/>
      <point x="105" y="426"/>
      <point x="81" y="334"/>
      <point x="72" y="289" type="curve" smooth="yes"/>
      <point x="60" y="230"/>
      <point x="46" y="168"/>
      <point x="46" y="117" type="curve" smooth="yes"/>
      <point x="46" y="46"/>
      <point x="72" y="-6"/>
      <point x="161" y="-6" type="curve" smooth="yes"/>
      <point x="239" y="-6"/>
      <point x="316" y="36"/>
      <point x="349" y="74" type="curve"/>
      <point x="334" y="0" type="line"/>
      <point x="398" y="10" type="line"/>
      <point x="503" y="504" type="line"/>
      <point x="448" y="494" type="line"/>
      <point x="371" y="159" type="line" smooth="yes"/>
      <point x="366" y="138"/>
      <point x="359" y="124"/>
      <point x="349" y="116" type="curve"/>
      <point x="323" y="92"/>
      <point x="242" y="43"/>
      <point x="173" y="43" type="curve" smooth="yes"/>
      <point x="118" y="43"/>
      <point x="102" y="79"/>
      <point x="102" y="130" type="curve" smooth="yes"/>
      <point x="102" y="175"/>
      <point x="114" y="233"/>
      <point x="126" y="289" type="curve" smooth="yes"/>
    </contour>
  </outline>
</glyph>
<glyph name="uacute" format="1">
  <advance width="516"/>
  <unicode hex="00FA"/>
  <outline>
    <contour>
      <point x="144" y="374"/>
      <point x="182" y="488"/>
      <point x="189" y="504" type="curve"/>
      <point x="132" y="494" type="line"/>
      <point x="105" y="426"/>
      <point x="81" y="334"/>
      <point x="72" y="289" type="curve" smooth="yes"/>
      <point x="60" y="230"/>
      <point x="46" y="168"/>
      <point x="46" y="117" type="curve" smooth="yes"/>
      <point x="46" y="46"/>
      <point x="72" y="-6"/>
      <point x="161" y="-6" type="curve" smooth="yes"/>
      <point x="239" y="-6"/>
      <point x="316" y="36"/>
      <point x="349" y="74" type="curve"/>
      <point x="334" y="0" type="line"/>
      <point x="398" y="10" type="line"/>
      <point x="503" y="504" type="line"/>
      <point x="448" y="494" type="line"/>
      <point x="371" y="159" type="line" smooth="yes"/>
      <point x="366" y="138"/>
      <point x="359" y="124"/>
      <point x="349" y="116" type="curve"/>
      <point x="323" y="92"/>
      <point x="242" y="43"/>
      <point x="173" y="43" type="curve" smooth="yes"/>
      <point x="118" y="43"/>
      <point x="102" y="79"/>
      <point x="102" y="130" type="curve" smooth="yes"/>
      <point x="102" y="175"/>
      <point x="114" y="233"/>
      <point x="126" y="289" type="curve" smooth="yes"/>
    </contour>
    <contour>
      <point x="256" y="602" type="line"/>
      <point x="289" y="567" type="line"/>
      <point x="475" y="679" type="line"/>
      <point x="432" y="724" type="line"/>
    </contour>
  </outline>
</glyph>
<glyph name="thorn" format="1">
  <advance width="528"/>
  <unicode hex="00FE"/>
  <outline>
    <contour>
      <point x="270" y="489"/>
      <point x="193" y="452"/>
      <point x="152" y="408" type="curve"/>
      <point x="212" y="691" type="line"/>
      <point x="154" y="680" type="line"/>
      <point x="-28" y="-175" type="line"/>
      <point x="26" y="-185" type="line"/>
      <point x="71" y="28" type="line"/>
      <point x="100" y="15"/>
      <point x="152" y="0"/>
      <point x="204" y="0" type="curve" smooth="yes"/>
      <point x="389" y="0"/>
      <point x="487" y="189"/>
      <point x="487" y="339" type="curve" smooth="yes"/>
      <point x="487" y="419"/>
      <point x="453" y="489"/>
      <point x="351" y="489" type="curve" smooth="yes"/>
    </contour>
    <contour>
      <point x="150" y="54"/>
      <point x="99" y="72"/>
      <point x="83" y="81" type="curve"/>
      <point x="127" y="290" type="line" smooth="yes"/>
      <point x="144" y="369"/>
      <point x="237" y="433"/>
      <point x="344" y="433" type="curve" smooth="yes"/>
      <point x="413" y="433"/>
      <point x="432" y="376"/>
      <point x="432" y="322" type="curve" smooth="yes"/>
      <point x="432" y="187"/>
      <point x="346" y="54"/>
      <point x="207" y="54" type="curve" smooth="yes"/>
    </contour>
  </outline>
</glyph>
<glyph name="Dcaron" format="1">
  <advance width="616"/>
  <unicode hex="010E"/>
  <outline>
    <contour>
      <point x="516" y="881" type="line"/>
      <point x="383" y="792" type="line"/>
      <point x="306" y="880" type="line"/>
      <point x="261" y="840" type="line"/>
      <point x="364" y="718" type="line"/>
      <point x="540" y="838" type="line"/>
    </contour>
    <contour>
      <point x="10" y="1" type="line"/>
      <point x="47" y="-10"/>
      <point x="110" y="-15"/>
      <point x="148" y="-15" type="curve" smooth="yes"/>
      <point x="401" y="-15"/>
      <point x="574" y="141"/>
      <point x="574" y="390" type="curve" smooth="yes"/>
      <point x="574" y="542"/>
      <point x="463" y="680"/>
      <point x="180" y="680" type="curve" smooth="yes"/>
      <point x="154" y="680" type="line"/>
    </contour>
    <contour>
      <point x="197" y="627" type="line"/>
      <point x="238" y="626"/>
      <point x="326" y="617"/>
      <point x="399" y="579" type="curve" smooth="yes"/>
      <point x="479" y="537"/>
      <point x="519" y="470"/>
      <point x="519" y="380" type="curve" smooth="yes"/>
      <point x="519" y="245"/>
      <point x="455" y="137"/>
      <point x="365" y="86" type="curve" smooth="yes"/>
      <point x="295" y="47"/>
      <point x="214" y="39"/>
      <point x="160" y="39" type="curve" smooth="yes"/>
      <point x="123" y="39"/>
      <point x="91" y="42"/>
      <point x="73" y="45" type="curve"/>
    </contour>
  </outline>
</glyph>
<glyph name="dcaron" format="1">
  <advance width="609"/>
  <unicode hex="010F"/>
  <outline>
    <contour>
      <point x="655" y="691" type="line"/>
      <point x="586" y="632" type="line"/>
      <point x="620" y="610" type="line"/>
      <point x="546" y="514" type="line"/>
      <point x="589" y="486" type="line"/>
      <point x="717" y="652" type="line"/>
    </contour>
    <contour>
      <point x="495" y="687" type="line"/>
      <point x="442" y="464" type="line"/>
      <point x="413" y="479"/>
      <point x="375" y="495"/>
      <point x="320" y="495" type="curve" smooth="yes"/>
      <point x="48" y="495"/>
      <point x="36" y="162"/>
      <point x="36" y="158" type="curve" smooth="yes"/>
      <point x="36" y="75"/>
      <point x="74" y="6"/>
      <point x="167" y="6" type="curve" smooth="yes"/>
      <point x="246" y="6"/>
      <point x="311" y="48"/>
      <point x="353" y="80" type="curve"/>
      <point x="334" y="0" type="line"/>
      <point x="392" y="10" type="line"/>
      <point x="554" y="697" type="line"/>
    </contour>
    <contour>
      <point x="372" y="162" type="line" smooth="yes"/>
      <point x="365" y="131"/>
      <point x="278" y="55"/>
      <point x="177" y="55" type="curve" smooth="yes"/>
      <point x="110" y="55"/>
      <point x="92" y="109"/>
      <point x="92" y="164" type="curve" smooth="yes"/>
      <point x="92" y="225"/>
      <point x="127" y="442"/>
      <point x="302" y="442" type="curve" smooth="yes"/>
      <point x="361" y="442"/>
      <point x="412" y="414"/>
      <point x="428" y="404" type="curve"/>
    </contour>
  </outline>
</glyph>
<glyph name="Eogonek" format="1">
  <advance width="611"/>
  <unicode hex="0118"/>
  <outline>
    <contour>
      <point x="456" y="-127" type="line"/>
      <point x="429" y="-145"/>
      <point x="407" y="-158"/>
      <point x="375" y="-158" type="curve" smooth="yes"/>
      <point x="345" y="-158"/>
      <point x="325" y="-141"/>
      <point x="325" y="-113" type="curve" smooth="yes"/>
      <point x="325" y="-64"/>
      <point x="377" y="-30"/>
      <point x="408" y="-11" type="curve" smooth="yes"/>
      <point x="426" y="0" type="line"/>
      <point x="476" y="0" type="line"/>
      <point x="507" y="56" type="line"/>
      <point x="77" y="56" type="line"/>
      <point x="135" y="326" type="line"/>
      <point x="503" y="326" type="line"/>
      <point x="532" y="382" type="line"/>
      <point x="147" y="382" type="line"/>
      <point x="198" y="625" type="line"/>
      <point x="613" y="625" type="line"/>
      <point x="635" y="681" type="line"/>
      <point x="154" y="681" type="line"/>
      <point x="10" y="0" type="line"/>
      <point x="356" y="0" type="line"/>
      <point x="316" y="-31"/>
      <point x="282" y="-75"/>
      <point x="282" y="-122" type="curve" smooth="yes"/>
      <point x="282" y="-169"/>
      <point x="315" y="-201"/>
      <point x="366" y="-201" type="curve" smooth="yes"/>
      <point x="407" y="-201"/>
      <point x="451" y="-180"/>
      <point x="473" y="-159" type="curve"/>
    </contour>
  </outline>
</glyph>
<glyph name="Ecaron" format="1">
  <advance width="611"/>
  <unicode hex="011A"/>
  <outline>
    <contour>
      <point x="77" y="56" type="line"/>
      <point x="135" y="326" type="line"/>
      <point x="503" y="326" type="line"/>
      <point x="532" y="382" type="line"/>
      <point x="147" y="382" type="line"/>
      <point x="198" y="625" type="line"/>
      <point x="613" y="625" type="line"/>
      <point x="635" y="681" type="line"/>
      <point x="154" y="681" type="line"/>
      <point x="10" y="0" type="line"/>
      <point x="476" y="0" type="line"/>
      <point x="507" y="56" type="line"/>
    </contour>
    <contour>
      <point x="546" y="881" type="line"/>
      <point x="412" y="792" type="line"/>
      <point x="335" y="880" type="line"/>
      <point x="290" y="840" type="line"/>
      <point x="393" y="718" type="line"/>
      <point x="570" y="838" type="line"/>
    </contour>
  </outline>
</glyph>
<glyph name="lacute" format="1">
  <advance width="226"/>
  <unicode hex="013A"/>
  <outline>
    <contour>
      <point x="174" y="681" type="line"/>
      <point x="30" y="0" type="line"/>
      <point x="88" y="10" type="line"/>
      <point x="233" y="692" type="line"/>
    </contour>
    <contour>
      <point x="148" y="771" type="line"/>
      <point x="181" y="736" type="line"/>
      <point x="367" y="848" type="line"/>
      <point x="324" y="893" type="line"/>
    </contour>
  </outline>
</glyph>
<glyph name="lcaron" format="1">
  <advance width="290"/>
  <unicode hex="013E"/>
  <outline>
    <contour>
      <point x="174" y="681" type="line"/>
      <point x="30" y="0" type="line"/>
      <point x="88" y="10" type="line"/>
      <point x="233" y="692" type="line"/>
    </contour>
    <contour>
      <point x="337" y="694" type="line"/>
      <point x="267" y="635" type="line"/>
      <point x="302" y="613" type="line"/>
      <point x="227" y="517" type="line"/>
      <point x="270" y="489" type="line"/>
      <point x="399" y="655" type="line"/>
    </contour>
  </outline>
</glyph>
<glyph name="Lslash" format="1">
  <advance width="549"/>
  <unicode hex="0141"/>
  <outline>
    <contour>
      <point x="479" y="29" type="line"/>
      <point x="487" y="85" type="line"/>
      <point x="140" y="60" type="line"/>
      <point x="198" y="330" type="line"/>
      <point x="294" y="384" type="line"/>
      <point x="273" y="432" type="line"/>
      <point x="212" y="397" type="line"/>
      <point x="272" y="678" type="line"/>
      <point x="213" y="668" type="line"/>
      <point x="148" y="362" type="line"/>
      <point x="52" y="308" type="line"/>
      <point x="74" y="261" type="line"/>
      <point x="134" y="295" type="line"/>
      <point x="72" y="0" type="line"/>
    </contour>
  </outline>
</glyph>
<glyph name="Nacute" format="1">
  <advance width="615"/>
  <unicode hex="0143"/>
  <outline>
    <contour>
      <point x="584" y="671" type="line"/>
      <point x="460" y="88" type="line"/>
      <point x="213" y="681" type="line"/>
      <point x="151" y="664" type="line"/>
      <point x="11" y="1" type="line"/>
      <point x="66" y="12" type="line"/>
      <point x="188" y="588" type="line"/>
      <point x="431" y="0" type="line"/>
      <point x="497" y="13" type="line"/>
      <point x="639" y="681" type="line"/>
    </contour>
    <contour>
      <point x="315" y="771" type="line"/>
      <point x="349" y="736" type="line"/>
      <point x="535" y="848" type="line"/>
      <point x="491" y="893" type="line"/>
    </contour>
  </outline>
</glyph>
<glyph name="oe" format="1">
  <advance width="911"/>
  <unicode hex="0153"/>
  <outline>
    <contour>
      <point x="557" y="51"/>
      <point x="503" y="95"/>
      <point x="485" y="159" type="curve"/>
      <point x="604" y="218"/>
      <point x="881" y="355"/>
      <point x="881" y="355" type="curve"/>
      <point x="875" y="435"/>
      <point x="809" y="502"/>
      <point x="727" y="502" type="curve" smooth="yes"/>
      <point x="635" y="502"/>
      <point x="545" y="448"/>
      <point x="488" y="372" type="curve"/>
      <point x="470" y="451"/>
      <point x="411" y="500"/>
      <point x="334" y="500" type="curve" smooth="yes"/>
      <point x="195" y="500"/>
      <point x="37" y="343"/>
      <point x="37" y="176" type="curve" smooth="yes"/>
      <point x="37" y="75"/>
      <point x="99" y="0"/>
      <point x="197" y="0" type="curve" smooth="yes"/>
      <point x="284" y="0"/>
      <point x="374" y="59"/>
      <point x="432" y="144" type="curve"/>
      <point x="453" y="59"/>
      <point x="524" y="0"/>
      <point x="621" y="0" type="curve" smooth="yes"/>
      <point x="686" y="0"/>
      <point x="753" y="27"/>
      <point x="810" y="76" type="curve"/>
      <point x="780" y="111" type="line"/>
      <point x="735" y="72"/>
      <point x="682" y="51"/>
      <point x="631" y="51" type="curve" smooth="yes"/>
    </contour>
    <contour>
      <point x="135" y="48"/>
      <point x="95" y="106"/>
      <point x="95" y="181" type="curve" smooth="yes"/>
      <point x="95" y="317"/>
      <point x="214" y="452"/>
      <point x="319" y="452" type="curve" smooth="yes"/>
      <point x="389" y="452"/>
      <point x="433" y="390"/>
      <point x="433" y="312" type="curve" smooth="yes"/>
      <point x="433" y="199"/>
      <point x="325" y="48"/>
      <point x="207" y="48" type="curve" smooth="yes"/>
    </contour>
    <contour>
      <point x="506" y="361"/>
      <point x="610" y="451"/>
      <point x="716" y="451" type="curve" smooth="yes"/>
      <point x="763" y="451"/>
      <point x="803" y="424"/>
      <point x="819" y="378" type="curve"/>
      <point x="479" y="208" type="line"/>
      <point x="479" y="222"/>
      <point x="480" y="236"/>
      <point x="483" y="251" type="curve" smooth="yes"/>
    </contour>
  </outline>
</glyph>
<glyph name="racute" format="1">
  <advance width="401"/>
  <unicode hex="0155"/>
  <outline>
    <contour>
      <point x="411" y="431" type="line" smooth="yes"/>
      <point x="412" y="435"/>
      <point x="412" y="440"/>
      <point x="412" y="444" type="curve" smooth="yes"/>
      <point x="412" y="477"/>
      <point x="386" y="502"/>
      <point x="344" y="502" type="curve" smooth="yes"/>
      <point x="262" y="502"/>
      <point x="188" y="430"/>
      <point x="145" y="376" type="curve"/>
      <point x="172" y="502" type="line"/>
      <point x="114" y="492" type="line"/>
      <point x="10" y="0" type="line"/>
      <point x="68" y="10" type="line"/>
      <point x="119" y="252" type="line" smooth="yes"/>
      <point x="139" y="348"/>
      <point x="255" y="447"/>
      <point x="326" y="447" type="curve" smooth="yes"/>
      <point x="348" y="447"/>
      <point x="354" y="439"/>
      <point x="354" y="427" type="curve" smooth="yes"/>
      <point x="354" y="423"/>
      <point x="353" y="418"/>
      <point x="352" y="412" type="curve"/>
      <point x="345" y="379" type="line"/>
      <point x="402" y="389" type="line"/>
    </contour>
    <contour>
      <point x="205" y="602" type="line"/>
      <point x="238" y="567" type="line"/>
      <point x="424" y="679" type="line"/>
      <point x="381" y="724" type="line"/>
    </contour>
  </outline>
</glyph>
<glyph name="scedilla" format="1">
  <advance width="460"/>
  <unicode hex="015F"/>
  <outline>
    <contour>
      <point x="237" y="505"/>
      <point x="100" y="480"/>
      <point x="100" y="355" type="curve" smooth="yes"/>
      <point x="100" y="288"/>
      <point x="162" y="264"/>
      <point x="222" y="243" type="curve" smooth="yes"/>
      <point x="288" y="220"/>
      <point x="329" y="205"/>
      <point x="329" y="159" type="curve" smooth="yes"/>
      <point x="329" y="95"/>
      <point x="255" y="50"/>
      <point x="189" y="50" type="curve" smooth="yes"/>
      <point x="133" y="50"/>
      <point x="82" y="77"/>
      <point x="77" y="130" type="curve"/>
      <point x="20" y="121" type="line"/>
      <point x="25" y="57"/>
      <point x="76" y="15"/>
      <point x="141" y="3" type="curve"/>
      <point x="116" y="-42" type="line"/>
      <point x="138" y="-72" type="line"/>
      <point x="144" y="-67"/>
      <point x="160" y="-61"/>
      <point x="173" y="-61" type="curve" smooth="yes"/>
      <point x="196" y="-61"/>
      <point x="212" y="-77"/>
      <point x="212" y="-99" type="curve" smooth="yes"/>
      <point x="212" y="-131"/>
      <point x="182" y="-159"/>
      <point x="152" y="-159" type="curve" smooth="yes"/>
      <point x="136" y="-159"/>
      <point x="117" y="-149"/>
      <point x="115" y="-136" type="curve"/>
      <point x="78" y="-166" type="line"/>
      <point x="91" y="-188"/>
      <point x="114" y="-201"/>
      <point x="143" y="-201" type="curve" smooth="yes"/>
      <point x="200" y="-201"/>
      <point x="255" y="-148"/>
      <point x="255" y="-89" type="curve" smooth="yes"/>
      <point x="255" y="-46"/>
      <point x="222" y="-19"/>
      <point x="174" y="-19" type="curve" smooth="yes"/>
      <point x="170" y="-19" type="line"/>
      <point x="175" y="0" type="line"/>
      <point x="182" y="0" type="line" smooth="yes"/>
      <point x="236" y="0"/>
      <point x="387" y="36"/>
      <point x="387" y="171" type="curve" smooth="yes"/>
      <point x="387" y="226"/>
      <point x="343" y="266"/>
      <point x="254" y="292" type="curve" smooth="yes"/>
      <point x="190" y="311"/>
      <point x="158" y="333"/>
      <point x="158" y="364" type="curve" smooth="yes"/>
      <point x="158" y="413"/>
      <point x="201" y="458"/>
      <point x="296" y="458" type="curve" smooth="yes"/>
      <point x="337" y="458"/>
      <point x="386" y="443"/>
      <point x="386" y="399" type="curve" smooth="yes"/>
      <point x="386" y="390"/>
      <point x="384" y="378"/>
      <point x="380" y="369" type="curve"/>
      <point x="431" y="379" type="line"/>
      <point x="435" y="393"/>
      <point x="438" y="407"/>
      <point x="438" y="419" type="curve" smooth="yes"/>
      <point x="438" y="489"/>
      <point x="358" y="505"/>
      <point x="306" y="505" type="curve" smooth="yes"/>
    </contour>
  </outline>
</glyph>
<glyph name="scaron" format="1">
  <advance width="460"/>
  <unicode hex="0161"/>
  <outline>
    <contour>
      <point x="454" y="712" type="line"/>
      <point x="320" y="623" type="line"/>
      <point x="243" y="711" type="line"/>
      <point x="198" y="671" type="line"/>
      <point x="301" y="549" type="line"/>
      <point x="478" y="669" type="line"/>
    </contour>
    <contour>
      <point x="237" y="505"/>
      <point x="100" y="480"/>
      <point x="100" y="355" type="curve" smooth="yes"/>
      <point x="100" y="288"/>
      <point x="162" y="264"/>
      <point x="222" y="243" type="curve" smooth="yes"/>
      <point x="288" y="220"/>
      <point x="329" y="205"/>
      <point x="329" y="159" type="curve" smooth="yes"/>
      <point x="329" y="95"/>
      <point x="255" y="50"/>
      <point x="189" y="50" type="curve" smooth="yes"/>
      <point x="133" y="50"/>
      <point x="82" y="77"/>
      <point x="77" y="130" type="curve"/>
      <point x="20" y="121" type="line"/>
      <point x="26" y="44"/>
      <point x="99" y="0"/>
      <point x="182" y="0" type="curve" smooth="yes"/>
      <point x="236" y="0"/>
      <point x="387" y="36"/>
      <point x="387" y="171" type="curve" smooth="yes"/>
      <point x="387" y="226"/>
      <point x="343" y="266"/>
      <point x="254" y="292" type="curve" smooth="yes"/>
      <point x="190" y="311"/>
      <point x="158" y="333"/>
      <point x="158" y="364" type="curve" smooth="yes"/>
      <point x="158" y="413"/>
      <point x="201" y="458"/>
      <point x="296" y="458" type="curve" smooth="yes"/>
      <point x="337" y="458"/>
      <point x="386" y="443"/>
      <point x="386" y="399" type="curve" smooth="yes"/>
      <point x="386" y="390"/>
      <point x="384" y="378"/>
      <point x="380" y="369" type="curve"/>
      <point x="431" y="379" type="line"/>
      <point x="435" y="393"/>
      <point x="438" y="407"/>
      <point x="438" y="419" type="curve" smooth="yes"/>
      <point x="438" y="489"/>
      <point x="358" y="505"/>
      <point x="306" y="505" type="curve" smooth="yes"/>
    </contour>
  </outline>
</glyph>
<glyph name="tcaron" format="1">
  <advance width="429"/>
  <unicode hex="0165"/>
  <outline>
    <contour>
      <point x="440" y="737" type="line"/>
      <point x="371" y="678" type="line"/>
      <point x="405" y="656" type="line"/>
      <point x="331" y="560" type="line"/>
      <point x="374" y="532" type="line"/>
      <point x="502" y="698" type="line"/>
    </contour>
    <contour>
      <point x="404" y="502" type="line"/>
      <point x="266" y="502" type="line"/>
      <point x="302" y="671" type="line"/>
      <point x="243" y="661" type="line"/>
      <point x="209" y="502" type="line"/>
      <point x="71" y="502" type="line"/>
      <point x="59" y="446" type="line"/>
      <point x="197" y="446" type="line"/>
      <point x="103" y="0" type="line"/>
      <point x="162" y="10" type="line"/>
      <point x="254" y="446" type="line"/>
      <point x="392" y="446" type="line"/>
    </contour>
  </outline>
</glyph>
<glyph name="uring" format="1">
  <advance width="515"/>
  <unicode hex="016F"/>
  <outline>
    <contour>
      <point x="406" y="563"/>
      <point x="496" y="619"/>
      <point x="496" y="701" type="curve" smooth="yes"/>
      <point x="496" y="754"/>
      <point x="448" y="782"/>
      <point x="390" y="782" type="curve"/>
      <point x="322" y="778"/>
      <point x="240" y="719"/>
      <point x="240" y="647" type="curve" smooth="yes"/>
      <point x="240" y="603"/>
      <point x="273" y="563"/>
      <point x="334" y="563" type="curve" smooth="yes"/>
    </contour>
    <contour>
      <point x="423" y="736"/>
      <point x="452" y="716"/>
      <point x="452" y="687" type="curve" smooth="yes"/>
      <point x="452" y="635"/>
      <point x="383" y="610"/>
      <point x="346" y="610" type="curve" smooth="yes"/>
      <point x="315" y="610"/>
      <point x="283" y="625"/>
      <point x="283" y="656" type="curve" smooth="yes"/>
      <point x="283" y="688"/>
      <point x="330" y="736"/>
      <point x="389" y="736" type="curve" smooth="yes"/>
    </contour>
    <contour>
      <point x="143" y="374"/>
      <point x="181" y="488"/>
      <point x="188" y="504" type="curve"/>
      <point x="131" y="494" type="line"/>
      <point x="102" y="423"/>
      <point x="79" y="326"/>
      <point x="70" y="283" type="curve" smooth="yes"/>
      <point x="58" y="225"/>
      <point x="45" y="166"/>
      <point x="45" y="117" type="curve" smooth="yes"/>
      <point x="45" y="46"/>
      <point x="71" y="-6"/>
      <point x="160" y="-6" type="curve" smooth="yes"/>
      <point x="238" y="-6"/>
      <point x="315" y="36"/>
      <point x="348" y="74" type="curve"/>
      <point x="333" y="0" type="line"/>
      <point x="397" y="10" type="line"/>
      <point x="502" y="504" type="line"/>
      <point x="447" y="494" type="line"/>
      <point x="370" y="159" type="line" smooth="yes"/>
      <point x="365" y="138"/>
      <point x="358" y="124"/>
      <point x="348" y="116" type="curve"/>
      <point x="322" y="92"/>
      <point x="241" y="43"/>
      <point x="172" y="43" type="curve" smooth="yes"/>
      <point x="117" y="43"/>
      <point x="101" y="79"/>
      <point x="101" y="130" type="curve" smooth="yes"/>
      <point x="101" y="175"/>
      <point x="113" y="233"/>
      <point x="125" y="289" type="curve" smooth="yes"/>
    </contour>
  </outline>
</glyph>
<glyph name="uhungarumlaut" format="1">
  <advance width="538"/>
  <unicode hex="0171"/>
  <outline>
    <contour>
      <point x="144" y="374"/>
      <point x="182" y="488"/>
      <point x="189" y="504" type="curve"/>
      <point x="132" y="494" type="line"/>
      <point x="105" y="426"/>
      <point x="81" y="334"/>
      <point x="72" y="289" type="curve" smooth="yes"/>
      <point x="60" y="230"/>
      <point x="46" y="168"/>
      <point x="46" y="117" type="curve" smooth="yes"/>
      <point x="46" y="46"/>
      <point x="72" y="-6"/>
      <point x="161" y="-6" type="curve" smooth="yes"/>
      <point x="239" y="-6"/>
      <point x="316" y="36"/>
      <point x="349" y="74" type="curve"/>
      <point x="334" y="0" type="line"/>
      <point x="398" y="10" type="line"/>
      <point x="503" y="504" type="line"/>
      <point x="448" y="494" type="line"/>
      <point x="371" y="159" type="line" smooth="yes"/>
      <point x="366" y="138"/>
      <point x="359" y="124"/>
      <point x="349" y="116" type="curve"/>
      <point x="323" y="92"/>
      <point x="242" y="43"/>
      <point x="173" y="43" type="curve" smooth="yes"/>
      <point x="118" y="43"/>
      <point x="102" y="79"/>
      <point x="102" y="130" type="curve" smooth="yes"/>
      <point x="102" y="175"/>
      <point x="114" y="233"/>
      <point x="126" y="289" type="curve" smooth="yes"/>
    </contour>
    <contour>
      <point x="342" y="602" type="line"/>
      <point x="376" y="567" type="line"/>
      <point x="562" y="679" type="line"/>
      <point x="518" y="724" type="line"/>
    </contour>
    <contour>
      <point x="182" y="602" type="line"/>
      <point x="215" y="567" type="line"/>
      <point x="401" y="679" type="line"/>
      <point x="358" y="724" type="line"/>
    </contour>
  </outline>
</glyph>
<glyph name="zacute" format="1">
  <advance width="453"/>
  <unicode hex="017A"/>
  <outline>
    <contour>
      <point x="351" y="0" type="line"/>
      <point x="372" y="56" type="line"/>
      <point x="61" y="56" type="line"/>
      <point x="465" y="457" type="line"/>
      <point x="452" y="502" type="line"/>
      <point x="113" y="502" type="line"/>
      <point x="91" y="446" type="line"/>
      <point x="387" y="446" type="line"/>
      <point x="-16" y="46" type="line"/>
      <point x="-3" y="0" type="line"/>
    </contour>
    <contour>
      <point x="210" y="602" type="line"/>
      <point x="243" y="567" type="line"/>
      <point x="430" y="679" type="line"/>
      <point x="386" y="724" type="line"/>
    </contour>
  </outline>
</glyph>
<glyph name="Zdotaccent" format="1">
  <advance width="621"/>
  <unicode hex="017B"/>
  <outline>
    <contour>
      <point x="18" y="0" type="line"/>
      <point x="496" y="0" type="line"/>
      <point x="519" y="61" type="line"/>
      <point x="75" y="61" type="line"/>
      <point x="649" y="626" type="line"/>
      <point x="635" y="681" type="line"/>
      <point x="179" y="681" type="line"/>
      <point x="155" y="620" type="line"/>
      <point x="577" y="620" type="line"/>
      <point x="4" y="55" type="line"/>
    </contour>
    <contour>
      <point x="470" y="820" type="line"/>
      <point x="395" y="810" type="line"/>
      <point x="368" y="728" type="line"/>
      <point x="444" y="738" type="line"/>
    </contour>
  </outline>
</glyph>
<glyph name="dotaccent" format="1">
  <advance width="500"/>
  <unicode hex="02D9"/>
  <outline>
    <contour>
      <point x="371" y="639" type="line"/>
      <point x="296" y="629" type="line"/>
      <point x="270" y="547" type="line"/>
      <point x="346" y="557" type="line"/>
    </contour>
  </outline>
</glyph>
<glyph name="ogonek" format="1">
  <advance width="500"/>
  <unicode hex="02DB"/>
  <outline>
    <contour>
      <point x="329" y="-127" type="line"/>
      <point x="302" y="-145"/>
      <point x="280" y="-158"/>
      <point x="248" y="-158" type="curve" smooth="yes"/>
      <point x="218" y="-158"/>
      <point x="198" y="-141"/>
      <point x="198" y="-113" type="curve" smooth="yes"/>
      <point x="198" y="-63"/>
      <point x="250" y="-31"/>
      <point x="281" y="-11" type="curve" smooth="yes"/>
      <point x="317" y="12" type="line"/>
      <point x="301" y="43" type="line"/>
      <point x="283" y="34" type="line" smooth="yes"/>
      <point x="229" y="7"/>
      <point x="155" y="-52"/>
      <point x="155" y="-122" type="curve" smooth="yes"/>
      <point x="155" y="-169"/>
      <point x="188" y="-201"/>
      <point x="239" y="-201" type="curve" smooth="yes"/>
      <point x="280" y="-201"/>
      <point x="324" y="-180"/>
      <point x="346" y="-159" type="curve"/>
    </contour>
  </outline>
</glyph>
<glyph name="endash" format="1">
  <advance width="596"/>
  <unicode hex="2013"/>
  <outline>
    <contour>
      <point x="508" y="222" type="line"/>
      <point x="530" y="276" type="line"/>
      <point x="84" y="276" type="line"/>
      <point x="63" y="222" type="line"/>
    </contour>
  </outline>
</glyph>
<glyph name="quoteleft" format="1">
  <advance width="182"/>
  <unicode hex="2018"/>
  <outline>
    <contour>
      <point x="150" y="544" type="line"/>
      <point x="220" y="603" type="line"/>
      <point x="185" y="625" type="line"/>
      <point x="260" y="721" type="line"/>
      <point x="217" y="749" type="line"/>
      <point x="88" y="583" type="line"/>
    </contour>
  </outline>
</glyph>
<glyph name="quotedblright" format="1">
  <advance width="348"/>
  <unicode hex="201D"/>
  <outline>
    <contour>
      <point x="196" y="749" type="line"/>
      <point x="126" y="690" type="line"/>
      <point x="160" y="668" type="line"/>
      <point x="86" y="572" type="line"/>
      <point x="129" y="544" type="line"/>
      <point x="257" y="710" type="line"/>
    </contour>
    <contour>
      <point x="362" y="749" type="line"/>
      <point x="292" y="690" type="line"/>
      <point x="326" y="668" type="line"/>
      <point x="252" y="572" type="line"/>
      <point x="295" y="544" type="line"/>
      <point x="423" y="710" type="line"/>
    </contour>
  </outline>
</glyph>
<glyph name="ellipsis" format="1">
  <advance width="734"/>
  <unicode hex="2026"/>
  <outline>
    <contour>
      <point x="115" y="92" type="line"/>
      <point x="40" y="82" type="line"/>
      <point x="14" y="0" type="line"/>
      <point x="90" y="10" type="line"/>
    </contour>
    <contour>
      <point x="627" y="92" type="line"/>
      <point x="552" y="82" type="line"/>
      <point x="526" y="0" type="line"/>
      <point x="602" y="10" type="line"/>
    </contour>
    <contour>
      <point x="371" y="92" type="line"/>
      <point x="296" y="82" type="line"/>
      <point x="270" y="0" type="line"/>
      <point x="346" y="10" type="line"/>
    </contour>
  </outline>
</glyph>
<glyph name="guilsinglleft" format="1">
  <advance width="404"/>
  <unicode hex="2039"/>
  <outline>
    <contour>
      <point x="235" y="64" type="line"/>
      <point x="280" y="104" type="line"/>
      <point x="150" y="249" type="line"/>
      <point x="360" y="400" type="line"/>
      <point x="333" y="440" type="line"/>
      <point x="70" y="250" type="line"/>
    </contour>
  </outline>
</glyph>
<glyph name="guilsinglright" format="1">
  <advance width="404"/>
  <unicode hex="203A"/>
  <outline>
    <contour>
      <point x="88" y="66" type="line"/>
      <point x="332" y="252" type="line"/>
      <point x="149" y="442" type="line"/>
      <point x="106" y="402" type="line"/>
      <point x="250" y="251" type="line"/>
      <point x="59" y="106" type="line"/>
    </contour>
  </outline>
</glyph>
<glyph name="Euro" format="1">
  <advance width="663"/>
  <unicode hex="20AC"/>
  <outline>
    <contour>
      <point x="430" y="0"/>
      <point x="495" y="19"/>
      <point x="547" y="51" type="curve"/>
      <point x="516" y="89" type="line"/>
      <point x="478" y="68"/>
      <point x="432" y="54"/>
      <point x="373" y="54" type="curve" smooth="yes"/>
      <point x="273" y="54"/>
      <point x="194" y="146"/>
      <point x="194" y="240" type="curve" smooth="yes"/>
      <point x="194" y="247"/>
      <point x="194" y="254"/>
      <point x="195" y="261" type="curve"/>
      <point x="419" y="261" type="line"/>
      <point x="442" y="318" type="line"/>
      <point x="205" y="318" type="line"/>
      <point x="212" y="339"/>
      <point x="219" y="361"/>
      <point x="230" y="385" type="curve"/>
      <point x="466" y="385" type="line"/>
      <point x="488" y="442" type="line"/>
      <point x="260" y="442" type="line"/>
      <point x="305" y="519"/>
      <point x="416" y="637"/>
      <point x="510" y="637" type="curve" smooth="yes"/>
      <point x="572" y="637"/>
      <point x="609" y="617"/>
      <point x="632" y="594" type="curve"/>
      <point x="678" y="630" type="line"/>
      <point x="644" y="669"/>
      <point x="591" y="691"/>
      <point x="526" y="691" type="curve" smooth="yes"/>
      <point x="376" y="691"/>
      <point x="241" y="514"/>
      <point x="204" y="442" type="curve"/>
      <point x="109" y="442" type="line"/>
      <point x="87" y="385" type="line"/>
      <point x="176" y="385" type="line"/>
      <point x="168" y="365"/>
      <point x="159" y="342"/>
      <point x="153" y="318" type="curve"/>
      <point x="83" y="318" type="line"/>
      <point x="61" y="261" type="line"/>
      <point x="142" y="261" type="line"/>
      <point x="140" y="249"/>
      <point x="139" y="237"/>
      <point x="139" y="225" type="curve" smooth="yes"/>
      <point x="139" y="101"/>
      <point x="238" y="0"/>
      <point x="368" y="0" type="curve" smooth="yes"/>
    </contour>
  </outline>
</glyph>
